<svg width="155" height="18" viewBox="0 0 155 18" fill="none" xmlns="http://www.w3.org/2000/svg">
<path d="M15.7664 15.5399C15.6066 15.7745 15.4468 16.009 15.2268 16.3335C16.2737 15.8887 17.2263 15.4835 18.1987 15.0708C17.9877 14.4508 17.7821 13.85 17.5666 13.2171C17.7525 13.2171 17.8809 13.2171 17.9877 13.2171C18.2355 13.7464 18.4797 14.2688 18.7069 14.7547C19.3758 14.6138 19.9504 14.492 20.5367 14.3686C20.5125 14.3381 20.4694 14.2848 20.4245 14.2292C20.4496 14.2216 20.4739 14.2079 20.4981 14.2079C21.51 14.1889 22.5228 14.1881 23.5338 14.1462C24.2476 14.1173 24.9578 14.0343 25.6698 13.9733C25.9517 13.9497 26.2355 13.9353 26.512 13.8873C26.6054 13.8713 26.7401 13.767 26.7427 13.6999C26.7454 13.6261 26.635 13.508 26.5443 13.4806C26.3225 13.4136 26.0855 13.3725 25.8512 13.3481C25.1652 13.2765 24.5852 13.1189 24.1336 12.588C23.8992 12.3124 23.3731 12.1509 22.9448 12.0702C21.7381 11.8432 20.5762 12.1349 19.5042 12.5515C18.5875 12.9071 17.6905 12.9125 16.7486 12.8142C15.0472 12.6368 14.8344 12.4388 14.7222 11.0009C14.6584 10.1891 14.6692 9.39172 14.8847 8.5875C15.1325 7.66142 15.0427 6.74449 14.4573 5.89838C14.4133 5.83517 14.3648 5.75673 14.3711 5.68971C14.434 5.03781 14.1035 4.48109 13.8019 3.91296C13.2245 2.8262 12.6679 1.73182 12.0861 0.647337C11.9621 0.41658 11.7646 0.214764 11.6012 0C11.5375 0.0167546 11.4728 0.0335083 11.4091 0.0502629C11.4468 0.46532 11.4845 0.880378 11.5222 1.29391C11.2448 0.950442 10.9539 0.59098 10.6638 0.231518C10.6234 0.243703 10.583 0.255127 10.5426 0.267312C10.5426 0.657999 10.5426 1.04945 10.5426 1.46679C10.3227 1.29848 10.0928 1.12332 9.86385 0.947396C9.81536 0.956535 9.76778 0.964912 9.71929 0.974051C9.73994 1.33275 9.76059 1.69221 9.78214 2.04863C9.59359 1.97933 9.38529 1.90317 9.11772 1.80493C9.11772 2.12403 9.11772 2.38144 9.11772 2.63885C8.59517 2.63047 8.54938 2.68759 8.58529 3.1552C8.59517 3.27933 8.49281 3.40956 8.43804 3.53598C8.42278 3.57025 8.3725 3.59767 8.3698 3.63042C8.33748 3.99217 8.35723 4.34325 8.12289 4.69281C7.98462 4.89844 8.17946 5.21525 7.95858 5.47723C7.88496 5.56405 8.00348 5.81918 8.11032 5.95474C8.53052 6.49241 8.96329 7.02551 9.42659 7.53729C9.7166 7.85715 10.0398 8.16482 10.4008 8.42528C11.146 8.96371 11.5824 9.63618 11.8652 10.4236C12.0457 10.927 12.3734 11.3931 12.6373 11.8752C12.7047 11.9971 12.7819 12.1151 12.8546 12.2347C12.8196 12.2507 12.7837 12.2667 12.7487 12.2826C12.4237 11.7701 12.0214 11.2812 11.7907 10.7397C11.3624 9.73671 10.6414 8.95305 9.65554 8.31638C9.45532 8.18691 9.26318 8.03155 9.12221 7.85715C8.2028 6.71784 7.0275 5.78262 5.88901 4.80933C5.22819 4.24424 4.77387 3.504 4.23515 2.83762C4.06097 2.6221 3.91192 2.39134 3.71259 2.11413C3.46658 2.67845 3.66322 3.14377 3.89127 3.70124C3.39565 3.26182 2.98623 2.89855 2.5759 2.53451C2.52831 2.54822 2.47983 2.56193 2.43225 2.57564C2.56244 2.96556 2.69173 3.35625 2.8282 3.76522C2.48881 3.54131 2.1557 3.32198 1.8235 3.10265C1.7813 3.12169 1.7382 3.14073 1.696 3.15977C1.79297 3.4842 1.88994 3.80939 1.9905 4.14296C1.82888 4.08965 1.65649 4.03253 1.36738 3.93809C1.48949 4.23054 1.57928 4.4453 1.67894 4.68139C1.59005 4.68139 1.48769 4.68139 1.37815 4.68139C1.36918 4.72556 1.34583 4.76592 1.35751 4.79715C1.50386 5.19393 1.72114 5.58081 1.78848 5.98596C1.88634 6.57085 2.25716 7.03694 2.50587 7.55557C2.66389 7.88533 3.07152 8.08638 3.09397 8.34227C3.12629 8.71239 3.3337 8.83272 3.63538 8.96524C3.73953 9.01093 3.83471 9.07338 3.87062 9.09394C4.06994 10.7785 4.48835 12.3695 5.32516 13.8705C6.42594 13.7251 7.52402 13.5796 8.62121 13.4341C8.62659 13.4638 8.63198 13.4928 8.63737 13.5225C7.656 13.7464 6.63334 13.8865 5.70316 14.2155C4.63829 14.5917 3.64077 15.1127 2.64324 15.613C1.74628 16.0623 0.887924 16.568 -6.10352e-05 17.0554C0.0205898 17.0608 0.0708694 17.0889 0.111273 17.0813C0.887026 16.9321 1.59095 17.0882 2.3245 17.3281C2.83538 17.4949 3.43785 17.4636 4.00081 17.5116C4.54671 17.5581 5.12583 17.5078 5.63582 17.6449C7.78799 18.226 9.88091 18.047 11.9765 17.4476C13.3969 17.0394 14.7769 16.5871 15.7664 15.5399Z" fill="#5AD815"/>
<path d="M47.6521 15.5399C47.4923 15.7745 47.3325 16.009 47.1125 16.3335C48.1594 15.8887 49.1121 15.4835 50.0844 15.0708C49.8734 14.4508 49.6678 13.85 49.4523 13.2171C49.6382 13.2171 49.7666 13.2171 49.8734 13.2171C50.1213 13.7464 50.3655 14.2688 50.5926 14.7547C51.2615 14.6138 51.8362 14.492 52.4225 14.3686C52.3982 14.3381 52.3551 14.2848 52.3102 14.2292C52.3354 14.2216 52.3596 14.2079 52.3839 14.2079C53.3958 14.1889 54.4085 14.1881 55.4195 14.1462C56.1333 14.1173 56.8435 14.0343 57.5555 13.9733C57.8375 13.9497 58.1212 13.9353 58.3977 13.8873C58.4911 13.8713 58.6258 13.767 58.6285 13.6999C58.6312 13.6261 58.5207 13.508 58.4301 13.4806C58.2083 13.4136 57.9713 13.3725 57.7369 13.3481C57.0509 13.2765 56.4709 13.1189 56.0193 12.588C55.785 12.3124 55.2588 12.1509 54.8305 12.0702C53.6238 11.8432 52.462 12.1349 51.3899 12.5515C50.4732 12.9071 49.5762 12.9125 48.6344 12.8142C46.9329 12.6368 46.7201 12.4388 46.6079 11.0009C46.5442 10.1891 46.5549 9.39172 46.7704 8.5875C47.0182 7.66142 46.9285 6.74449 46.3431 5.89838C46.2991 5.83517 46.2506 5.75673 46.2569 5.68971C46.3197 5.03781 45.9893 4.48109 45.6876 3.91296C45.1103 2.8262 44.5536 1.73182 43.9718 0.647337C43.8479 0.41658 43.6504 0.214764 43.487 0C43.4232 0.0167546 43.3586 0.0335083 43.2948 0.0502629C43.3325 0.46532 43.3702 0.880378 43.4079 1.29391C43.1305 0.950442 42.8396 0.59098 42.5496 0.231518C42.5092 0.243703 42.4688 0.255127 42.4284 0.267312C42.4284 0.657999 42.4284 1.04945 42.4284 1.46679C42.2084 1.29848 41.9785 1.12332 41.7496 0.947396C41.7011 0.956535 41.6535 0.964912 41.605 0.974051C41.6257 1.33275 41.6463 1.69221 41.6679 2.04863C41.4793 1.97933 41.271 1.90317 41.0035 1.80493C41.0035 2.12403 41.0035 2.38144 41.0035 2.63885C40.4809 2.63047 40.4351 2.68759 40.471 3.1552C40.4809 3.27933 40.3786 3.40956 40.3238 3.53598C40.3085 3.57025 40.2582 3.59767 40.2555 3.63042C40.2232 3.99217 40.243 4.34325 40.0086 4.69281C39.8704 4.89844 40.0652 5.21525 39.8443 5.47723C39.7707 5.56405 39.8892 5.81918 39.9961 5.95474C40.4163 6.49241 40.849 7.02551 41.3123 7.53729C41.6023 7.85715 41.9256 8.16482 42.2865 8.42528C43.0317 8.96371 43.4681 9.63618 43.7509 10.4236C43.9314 10.927 44.2591 11.3931 44.5231 11.8752C44.5904 11.9971 44.6676 12.1151 44.7404 12.2347C44.7053 12.2507 44.6694 12.2667 44.6344 12.2826C44.3094 11.7701 43.9072 11.2812 43.6764 10.7397C43.2481 9.73671 42.5271 8.95305 41.5413 8.31638C41.3411 8.18691 41.1489 8.03155 41.008 7.85715C40.0885 6.71784 38.9132 5.78262 37.7748 4.80933C37.1139 4.24424 36.6596 3.504 36.1209 2.83762C35.9467 2.6221 35.7977 2.39134 35.5983 2.11413C35.3523 2.67845 35.549 3.14377 35.777 3.70124C35.2814 3.26182 34.872 2.89855 34.4616 2.53451C34.4141 2.54822 34.3656 2.56193 34.318 2.57564C34.4482 2.96556 34.5775 3.35625 34.7139 3.76522C34.3746 3.54131 34.0414 3.32198 33.7092 3.10265C33.667 3.12169 33.6239 3.14073 33.5817 3.15977C33.6787 3.4842 33.7757 3.80939 33.8762 4.14296C33.7146 4.08965 33.5422 4.03253 33.2531 3.93809C33.3752 4.23054 33.465 4.4453 33.5647 4.68139C33.4758 4.68139 33.3734 4.68139 33.2639 4.68139C33.2549 4.72556 33.2316 4.76592 33.2432 4.79715C33.3896 5.19393 33.6069 5.58081 33.6742 5.98596C33.7721 6.57085 34.1429 7.03694 34.3916 7.55557C34.5496 7.88533 34.9573 8.08638 34.9797 8.34227C35.012 8.71239 35.2194 8.83272 35.5211 8.96524C35.6253 9.01093 35.7204 9.07338 35.7564 9.09394C35.9557 10.7785 36.3741 12.3695 37.2109 13.8705C38.3117 13.7251 39.4098 13.5796 40.5069 13.4341C40.5123 13.4638 40.5177 13.4928 40.5231 13.5225C39.5417 13.7464 38.5191 13.8865 37.5889 14.2155C36.524 14.5917 35.5265 15.1127 34.529 15.613C33.632 16.0623 32.7737 16.568 31.8857 17.0554C31.9063 17.0608 31.9566 17.0889 31.997 17.0813C32.7728 16.9321 33.4767 17.0882 34.2102 17.3281C34.7211 17.4949 35.3236 17.4636 35.8866 17.5116C36.4325 17.5581 37.0116 17.5078 37.5216 17.6449C39.6737 18.226 41.7666 18.047 43.8623 17.4476C45.2827 17.0394 46.6627 16.5871 47.6521 15.5399Z" fill="#5AD815"/>
<path d="M79.4458 15.5399C79.2921 15.7745 79.1384 16.009 78.9269 16.3335C79.9335 15.8887 80.8495 15.4835 81.7845 15.0708C81.5816 14.4508 81.3839 13.85 81.1767 13.2171C81.3554 13.2171 81.4789 13.2171 81.5816 13.2171C81.8199 13.7464 82.0547 14.2688 82.2732 14.7547C82.9163 14.6138 83.4689 14.492 84.0326 14.3686C84.0093 14.3381 83.9679 14.2848 83.9247 14.2292C83.9489 14.2216 83.9722 14.2079 83.9955 14.2079C84.9685 14.1889 85.9423 14.1881 86.9144 14.1462C87.6008 14.1173 88.2837 14.0343 88.9683 13.9733C89.2394 13.9497 89.5122 13.9353 89.7781 13.8873C89.8679 13.8713 89.9974 13.767 90 13.6999C90.0025 13.6261 89.8964 13.508 89.8092 13.4806C89.5959 13.4136 89.368 13.3725 89.1427 13.3481C88.4831 13.2765 87.9254 13.1189 87.4911 12.588C87.2658 12.3124 86.7599 12.1509 86.3481 12.0702C85.1878 11.8432 84.0706 12.1349 83.0398 12.5515C82.1583 12.9071 81.2959 12.9125 80.3902 12.8142C78.7542 12.6368 78.5496 12.4388 78.4417 11.0009C78.3804 10.1891 78.3908 9.39172 78.598 8.5875C78.8363 7.66142 78.7499 6.74449 78.187 5.89838C78.1447 5.83517 78.0981 5.75673 78.1041 5.68971C78.1646 5.03781 77.8469 4.48109 77.5568 3.91296C77.0017 2.8262 76.4664 1.73182 75.907 0.647337C75.7878 0.41658 75.5979 0.214764 75.4408 0C75.3795 0.0167546 75.3173 0.0335083 75.256 0.0502629C75.2923 0.46532 75.3285 0.880378 75.3648 1.29391C75.098 0.950442 74.8183 0.59098 74.5395 0.231518C74.5006 0.243703 74.4618 0.255127 74.4229 0.267312C74.4229 0.657999 74.4229 1.04945 74.4229 1.46679C74.2114 1.29848 73.9904 1.12332 73.7702 0.947396C73.7236 0.956535 73.6779 0.964912 73.6312 0.974051C73.6511 1.33275 73.671 1.69221 73.6917 2.04863C73.5104 1.97933 73.3101 1.90317 73.0528 1.80493C73.0528 2.12403 73.0528 2.38144 73.0528 2.63885C72.5504 2.63047 72.5063 2.68759 72.5409 3.1552C72.5504 3.27933 72.4519 3.40956 72.3993 3.53598C72.3846 3.57025 72.3363 3.59767 72.3337 3.63042C72.3026 3.99217 72.3216 4.34325 72.0962 4.69281C71.9633 4.89844 72.1506 5.21525 71.9383 5.47723C71.8675 5.56405 71.9814 5.81918 72.0842 5.95474C72.4882 6.49241 72.9043 7.02551 73.3498 7.53729C73.6287 7.85715 73.9395 8.16482 74.2865 8.42528C75.0031 8.96371 75.4227 9.63618 75.6946 10.4236C75.8681 10.927 76.1832 11.3931 76.4371 11.8752C76.5018 11.9971 76.5761 12.1151 76.646 12.2347C76.6123 12.2507 76.5778 12.2667 76.5441 12.2826C76.2316 11.7701 75.8448 11.2812 75.6229 10.7397C75.2111 9.73671 74.5179 8.95305 73.5699 8.31638C73.3774 8.18691 73.1927 8.03155 73.0571 7.85715C72.1731 6.71784 71.043 5.78262 69.9483 4.80933C69.3129 4.24424 68.876 3.504 68.358 2.83762C68.1905 2.6221 68.0472 2.39134 67.8556 2.11413C67.619 2.67845 67.8081 3.14377 68.0274 3.70124C67.5508 3.26182 67.1571 2.89855 66.7626 2.53451C66.7168 2.54822 66.6702 2.56193 66.6245 2.57564C66.7497 2.96556 66.874 3.35625 67.0052 3.76522C66.6789 3.54131 66.3586 3.32198 66.0391 3.10265C65.9986 3.12169 65.9571 3.14073 65.9165 3.15977C66.0098 3.4842 66.103 3.80939 66.1997 4.14296C66.0443 4.08965 65.8786 4.03253 65.6006 3.93809C65.718 4.23054 65.8043 4.4453 65.9001 4.68139C65.8147 4.68139 65.7162 4.68139 65.6109 4.68139C65.6023 4.72556 65.5798 4.76592 65.5911 4.79715C65.7318 5.19393 65.9407 5.58081 66.0055 5.98596C66.0996 6.57085 66.4561 7.03694 66.6953 7.55557C66.8472 7.88533 67.2392 8.08638 67.2607 8.34227C67.2918 8.71239 67.4913 8.83272 67.7813 8.96524C67.8815 9.01093 67.973 9.07338 68.0075 9.09394C68.1992 10.7785 68.6015 12.3695 69.4061 13.8705C70.4646 13.7251 71.5204 13.5796 72.5754 13.4341C72.5806 13.4638 72.5858 13.4928 72.5909 13.5225C71.6473 13.7464 70.664 13.8865 69.7696 14.2155C68.7457 14.5917 67.7865 15.1127 66.8274 15.613C65.9649 16.0623 65.1395 16.568 64.2857 17.0554C64.3056 17.0608 64.3539 17.0889 64.3928 17.0813C65.1387 16.9321 65.8155 17.0882 66.5209 17.3281C67.0121 17.4949 67.5914 17.4636 68.1327 17.5116C68.6576 17.5581 69.2145 17.5078 69.7048 17.6449C71.7742 18.226 73.7866 18.047 75.8017 17.4476C77.1674 17.0394 78.4944 16.5871 79.4458 15.5399Z" fill="#5AD815"/>
<mask id="mask0_1_85" style="mask-type:alpha" maskUnits="userSpaceOnUse" x="95" y="0" width="28" height="18">
<path d="M111.423 15.5399C111.265 15.7745 111.107 16.009 110.89 16.3335C111.925 15.8887 112.867 15.4835 113.829 15.0708C113.621 14.4508 113.417 13.85 113.204 13.2171C113.388 13.2171 113.515 13.2171 113.621 13.2171C113.866 13.7464 114.107 14.2688 114.332 14.7547C114.994 14.6138 115.562 14.492 116.142 14.3686C116.118 14.3381 116.075 14.2848 116.031 14.2292C116.056 14.2216 116.08 14.2079 116.104 14.2079C117.105 14.1889 118.107 14.1881 119.107 14.1462C119.813 14.1173 120.515 14.0343 121.219 13.9733C121.498 13.9497 121.779 13.9353 122.052 13.8873C122.145 13.8713 122.278 13.767 122.281 13.6999C122.283 13.6261 122.174 13.508 122.084 13.4806C121.865 13.4136 121.631 13.3725 121.399 13.3481C120.72 13.2765 120.147 13.1189 119.7 12.588C119.468 12.3124 118.948 12.1509 118.524 12.0702C117.33 11.8432 116.181 12.1349 115.121 12.5515C114.214 12.9071 113.327 12.9125 112.395 12.8142C110.712 12.6368 110.501 12.4388 110.39 11.0009C110.327 10.1891 110.338 9.39172 110.551 8.5875C110.796 7.66142 110.707 6.74449 110.128 5.89838C110.085 5.83517 110.037 5.75673 110.043 5.68971C110.105 5.03781 109.779 4.48109 109.48 3.91296C108.909 2.8262 108.358 1.73182 107.783 0.647337C107.66 0.41658 107.465 0.214764 107.303 0C107.24 0.0167546 107.176 0.0335083 107.113 0.0502629C107.151 0.46532 107.188 0.880378 107.225 1.29391C106.951 0.950442 106.663 0.59098 106.376 0.231518C106.336 0.243703 106.296 0.255127 106.256 0.267312C106.256 0.657999 106.256 1.04945 106.256 1.46679C106.039 1.29848 105.811 1.12332 105.585 0.947396C105.537 0.956535 105.49 0.964912 105.442 0.974051C105.462 1.33275 105.483 1.69221 105.504 2.04863C105.317 1.97933 105.111 1.90317 104.847 1.80493C104.847 2.12403 104.847 2.38144 104.847 2.63885C104.33 2.63047 104.285 2.68759 104.32 3.1552C104.33 3.27933 104.229 3.40956 104.174 3.53598C104.159 3.57025 104.11 3.59767 104.107 3.63042C104.075 3.99217 104.094 4.34325 103.863 4.69281C103.726 4.89844 103.919 5.21525 103.7 5.47723C103.627 5.56405 103.745 5.81918 103.85 5.95474C104.266 6.49241 104.694 7.02551 105.152 7.53729C105.439 7.85715 105.759 8.16482 106.116 8.42528C106.853 8.96371 107.285 9.63618 107.564 10.4236C107.743 10.927 108.067 11.3931 108.328 11.8752C108.395 11.9971 108.471 12.1151 108.543 12.2347C108.508 12.2507 108.473 12.2667 108.438 12.2826C108.117 11.7701 107.719 11.2812 107.491 10.7397C107.067 9.73671 106.354 8.95305 105.379 8.31638C105.181 8.18691 104.991 8.03155 104.851 7.85715C103.942 6.71784 102.779 5.78262 101.653 4.80933C100.999 4.24424 100.55 3.504 100.017 2.83762C99.8448 2.6221 99.6974 2.39134 99.5002 2.11413C99.2568 2.67845 99.4513 3.14377 99.6769 3.70124C99.1867 3.26182 98.7817 2.89855 98.3758 2.53451C98.3288 2.54822 98.2808 2.56193 98.2337 2.57564C98.3625 2.96556 98.4904 3.35625 98.6254 3.76522C98.2897 3.54131 97.9602 3.32198 97.6316 3.10265C97.5898 3.12169 97.5472 3.14073 97.5055 3.15977C97.6014 3.4842 97.6973 3.80939 97.7968 4.14296C97.6369 4.08965 97.4664 4.03253 97.1804 3.93809C97.3012 4.23054 97.39 4.4453 97.4886 4.68139C97.4007 4.68139 97.2994 4.68139 97.1911 4.68139C97.1822 4.72556 97.1591 4.76592 97.1706 4.79715C97.3154 5.19393 97.5303 5.58081 97.5969 5.98596C97.6937 6.57085 98.0605 7.03694 98.3065 7.55557C98.4629 7.88533 98.8661 8.08638 98.8883 8.34227C98.9202 8.71239 99.1254 8.83272 99.4238 8.96524C99.5268 9.01093 99.621 9.07338 99.6565 9.09394C99.8537 10.7785 100.268 12.3695 101.095 13.8705C102.184 13.7251 103.27 13.5796 104.356 13.4341C104.361 13.4638 104.366 13.4928 104.372 13.5225C103.401 13.7464 102.389 13.8865 101.469 14.2155C100.416 14.5917 99.4291 15.1127 98.4424 15.613C97.5552 16.0623 96.7061 16.568 95.8278 17.0554C95.8482 17.0608 95.8979 17.0889 95.9379 17.0813C96.7053 16.9321 97.4015 17.0882 98.1271 17.3281C98.6325 17.4949 99.2284 17.4636 99.7853 17.5116C100.325 17.5581 100.898 17.5078 101.403 17.6449C103.531 18.226 105.602 18.047 107.675 17.4476C109.08 17.0394 110.445 16.5871 111.423 15.5399Z" fill="black"/>
</mask>
<g mask="url(#mask0_1_85)">
<rect x="93.3862" y="-4.47046" width="30.9805" height="26.7073" fill="black" fill-opacity="0.1"/>
<rect x="93.3862" y="-3.4021" width="11.7512" height="26.7073" fill="#5AD815"/>
</g>
<path d="M143.309 15.5399C143.149 15.7745 142.99 16.009 142.77 16.3335C143.817 15.8887 144.769 15.4835 145.742 15.0708C145.531 14.4508 145.325 13.85 145.109 13.2171C145.295 13.2171 145.424 13.2171 145.531 13.2171C145.778 13.7464 146.023 14.2688 146.25 14.7547C146.919 14.6138 147.493 14.492 148.08 14.3686C148.055 14.3381 148.012 14.2848 147.967 14.2292C147.992 14.2216 148.017 14.2079 148.041 14.2079C149.053 14.1889 150.066 14.1881 151.077 14.1462C151.79 14.1173 152.501 14.0343 153.213 13.9733C153.495 13.9497 153.778 13.9353 154.055 13.8873C154.148 13.8713 154.283 13.767 154.286 13.6999C154.288 13.6261 154.178 13.508 154.087 13.4806C153.865 13.4136 153.628 13.3725 153.394 13.3481C152.708 13.2765 152.128 13.1189 151.676 12.588C151.442 12.3124 150.916 12.1509 150.488 12.0702C149.281 11.8432 148.119 12.1349 147.047 12.5515C146.13 12.9071 145.233 12.9125 144.291 12.8142C142.59 12.6368 142.377 12.4388 142.265 11.0009C142.201 10.1891 142.212 9.39172 142.428 8.5875C142.675 7.66142 142.586 6.74449 142 5.89838C141.956 5.83517 141.908 5.75673 141.914 5.68971C141.977 5.03781 141.646 4.48109 141.345 3.91296C140.767 2.8262 140.211 1.73182 139.629 0.647337C139.505 0.41658 139.307 0.214764 139.144 0C139.08 0.0167546 139.016 0.0335083 138.952 0.0502629C138.99 0.46532 139.027 0.880378 139.065 1.29391C138.788 0.950442 138.497 0.59098 138.207 0.231518C138.166 0.243703 138.126 0.255127 138.085 0.267312C138.085 0.657999 138.085 1.04945 138.085 1.46679C137.866 1.29848 137.636 1.12332 137.407 0.947396C137.358 0.956535 137.311 0.964912 137.262 0.974051C137.283 1.33275 137.303 1.69221 137.325 2.04863C137.136 1.97933 136.928 1.90317 136.661 1.80493C136.661 2.12403 136.661 2.38144 136.661 2.63885C136.138 2.63047 136.092 2.68759 136.128 3.1552C136.138 3.27933 136.036 3.40956 135.981 3.53598C135.966 3.57025 135.915 3.59767 135.913 3.63042C135.88 3.99217 135.9 4.34325 135.666 4.69281C135.527 4.89844 135.722 5.21525 135.501 5.47723C135.428 5.56405 135.546 5.81918 135.653 5.95474C136.073 6.49241 136.506 7.02551 136.969 7.53729C137.259 7.85715 137.583 8.16482 137.944 8.42528C138.689 8.96371 139.125 9.63618 139.408 10.4236C139.588 10.927 139.916 11.3931 140.18 11.8752C140.248 11.9971 140.325 12.1151 140.397 12.2347C140.362 12.2507 140.327 12.2667 140.292 12.2826C139.966 11.7701 139.564 11.2812 139.334 10.7397C138.905 9.73671 138.184 8.95305 137.198 8.31638C136.998 8.18691 136.806 8.03155 136.665 7.85715C135.746 6.71784 134.57 5.78262 133.432 4.80933C132.771 4.24424 132.317 3.504 131.778 2.83762C131.604 2.6221 131.455 2.39134 131.255 2.11413C131.009 2.67845 131.206 3.14377 131.434 3.70124C130.938 3.26182 130.529 2.89855 130.119 2.53451C130.071 2.54822 130.023 2.56193 129.975 2.57564C130.105 2.96556 130.235 3.35625 130.371 3.76522C130.032 3.54131 129.699 3.32198 129.366 3.10265C129.324 3.12169 129.281 3.14073 129.239 3.15977C129.336 3.4842 129.433 3.80939 129.533 4.14296C129.372 4.08965 129.199 4.03253 128.91 3.93809C129.032 4.23054 129.122 4.4453 129.222 4.68139C129.133 4.68139 129.031 4.68139 128.921 4.68139C128.912 4.72556 128.889 4.76592 128.9 4.79715C129.047 5.19393 129.264 5.58081 129.331 5.98596C129.429 6.57085 129.8 7.03694 130.049 7.55557C130.207 7.88533 130.614 8.08638 130.637 8.34227C130.669 8.71239 130.877 8.83272 131.178 8.96524C131.282 9.01093 131.378 9.07338 131.413 9.09394C131.613 10.7785 132.031 12.3695 132.868 13.8705C133.969 13.7251 135.067 13.5796 136.164 13.4341C136.169 13.4638 136.175 13.4928 136.18 13.5225C135.199 13.7464 134.176 13.8865 133.246 14.2155C132.181 14.5917 131.184 15.1127 130.186 15.613C129.289 16.0623 128.431 16.568 127.543 17.0554C127.563 17.0608 127.614 17.0889 127.654 17.0813C128.43 16.9321 129.134 17.0882 129.867 17.3281C130.378 17.4949 130.981 17.4636 131.544 17.5116C132.09 17.5581 132.669 17.5078 133.179 17.6449C135.331 18.226 137.424 18.047 139.519 17.4476C140.94 17.0394 142.32 16.5871 143.309 15.5399Z" fill="black" fill-opacity="0.1"/>
</svg>
