<svg width="19" height="20" viewBox="0 0 19 20" fill="none" xmlns="http://www.w3.org/2000/svg">
<path d="M8.99293 6.93178C9.28445 6.93178 9.52077 6.66592 9.52077 6.33796C9.52077 6.01 9.28445 5.74414 8.99293 5.74414C8.70141 5.74414 8.46509 6.01 8.46509 6.33796C8.46509 6.66592 8.70141 6.93178 8.99293 6.93178Z" fill="black" stroke="black" stroke-width="0.5"/>
<path d="M18.6029 9.44287C18.4964 8.58286 17.6262 8.52938 17.2546 8.50659C15.6278 8.40662 14.4839 7.95928 13.3397 6.96975C13.3322 6.39721 13.2802 5.85432 13.1837 5.35478C13.0159 4.48657 12.6982 3.71867 12.2393 3.07234C11.7621 2.40022 11.1554 1.89352 10.436 1.56638C9.62109 1.19586 8.67979 1 7.71375 1C6.21706 1 4.85721 1.46541 3.88474 2.31048C2.80742 3.24672 2.1213 4.69776 1.90066 6.50662C1.71872 7.99802 1.85594 9.68989 2.28701 11.2705C2.71117 12.8258 2.7928 14.3723 2.52307 15.7429C2.28158 16.9698 1.77943 17.9393 1.10904 18.4728C1.01729 18.5458 0.978074 18.6772 1.01217 18.7977C1.04619 18.9181 1.14567 19 1.25803 19H10.6014C10.744 19 10.8594 18.87 10.8594 18.7097C10.8594 17.2282 10.4101 16.563 10.0136 15.976C9.67826 15.4795 9.38864 15.0507 9.39776 14.1363C9.40471 13.4374 9.69185 12.8601 10.2512 12.4203C10.665 12.0949 11.1175 11.9306 11.3534 11.861C12.0559 12.1569 12.994 12.4326 14.0512 12.4326C14.299 12.4326 14.5472 12.4171 14.7888 12.3863C16.2752 12.1971 16.947 11.5302 17.2504 10.958C17.6852 10.8415 18.1178 10.6452 18.3741 10.3139C18.5639 10.0686 18.643 9.76741 18.6029 9.44287ZM9.95549 11.9445C9.26191 12.4899 8.89059 13.2455 8.88179 14.1298C8.87075 15.2433 9.24289 15.7943 9.60282 16.3271C9.95371 16.8466 10.2867 17.3396 10.337 18.4194H1.93203C2.44226 17.7858 2.82263 16.9062 3.02686 15.8684C3.31583 14.4001 3.23058 12.7512 2.78031 11.1002C2.37078 9.59848 2.23992 7.99512 2.41185 6.58549C2.61375 4.93054 3.23213 3.61109 4.20016 2.76981C5.08274 2.00281 6.33058 1.58043 7.71372 1.58043C8.61408 1.58043 9.48854 1.76167 10.2426 2.10451C11.5045 2.67836 12.37 3.87642 12.6794 5.47804C12.7631 5.91098 12.8111 6.3808 12.8226 6.87764L12.8198 6.87818C12.6756 6.90438 12.5287 6.91089 12.3828 6.9076C12.2512 6.90462 12.1091 6.86383 11.9787 6.89266C11.7822 6.93608 11.6311 7.13098 11.6213 7.35625C11.6104 7.60773 11.722 7.86362 11.7225 8.12244C11.7241 8.96267 11.2995 9.60502 10.7964 10.1723C10.6136 10.3784 10.406 10.5708 10.1427 10.6213C9.91673 10.6648 9.85298 11.0096 10.0452 11.1506C10.0452 11.1506 10.0479 11.1525 10.0504 11.1544C10.0917 11.1843 10.3028 11.3338 10.6461 11.5207C10.4282 11.6241 10.187 11.7624 9.95549 11.9445ZM14.7308 11.8094C14.5083 11.8377 14.2797 11.8521 14.0512 11.8521C12.6243 11.8521 11.4054 11.2953 10.7786 10.9442L10.781 10.9424C10.7943 10.9327 10.8072 10.923 10.8198 10.9133C10.9056 10.8473 10.9869 10.7736 11.0623 10.6931C11.0639 10.6913 11.0658 10.6895 11.0674 10.6877C11.0875 10.6663 11.2858 10.7334 11.3276 10.7416C12.8372 11.0367 14.3796 11.1266 15.91 11.1266C16.0989 11.1266 16.288 11.1152 16.4761 11.096C16.1479 11.411 15.6103 11.6975 14.7308 11.8094ZM16.1456 10.5394C16.1435 10.5396 16.1413 10.5397 16.1392 10.5398C15.5167 10.5732 14.885 10.535 14.2631 10.5C13.3428 10.4483 12.4215 10.3546 11.5119 10.1864C11.5093 10.186 11.5069 10.1855 11.5044 10.185C11.5063 10.1824 11.5084 10.1796 11.5103 10.177C11.5187 10.1659 11.5271 10.1545 11.5356 10.143C11.5389 10.1386 11.5421 10.1342 11.5454 10.1297C11.9708 9.54771 12.2609 8.81387 12.2394 8.04961C12.237 7.96579 12.2309 7.88211 12.221 7.79902C12.208 7.69 12.1889 7.5816 12.1639 7.47522C12.2077 7.47947 12.2513 7.48249 12.2947 7.48481C12.5325 7.49766 12.7725 7.48273 13.0063 7.43032C13.0114 7.4292 13.0166 7.42831 13.0216 7.42711C14.256 8.49652 15.4841 8.97924 17.2264 9.08628C17.8223 9.12289 18.0569 9.24124 18.0918 9.52298C18.2012 10.4069 16.6365 10.5135 16.1456 10.5394Z" fill="black" stroke="black" stroke-width="0.5"/>
</svg>
