<svg width="216" height="132" viewBox="0 0 216 132" fill="none" xmlns="http://www.w3.org/2000/svg">
<path d="M217.593 104.524C216.223 99.9621 214.865 95.4512 213.511 90.9371C213.865 90.7736 214.223 90.6101 214.578 90.4466C216.104 101.27 223.714 106.948 232.798 111.552C230.776 107.74 228.754 103.925 226.733 100.113C231.131 105.056 235.346 110.055 241.002 113.536C241.312 113.399 241.618 113.258 241.928 113.12C240.864 109.555 239.796 105.993 238.732 102.428C238.79 102.351 238.845 102.274 238.903 102.197C241.293 105.916 243.682 109.632 246.488 113.998C246.991 107.022 244.888 101.552 241.792 96.3264C242.002 96.2239 242.212 96.1213 242.421 96.0187C244.03 98.2757 245.64 100.53 247.62 103.306C247.313 95.9546 243.389 90.655 240.883 84.7206C242.786 86.9103 244.692 89.1001 246.594 91.2866C246.839 91.1551 247.084 91.0237 247.326 90.8922C245.059 86.0768 243.066 81.1106 240.47 76.4779C235.388 67.408 228.674 59.5115 220.183 53.5259C216.739 51.0989 212.018 50.2814 207.751 49.2458C204.594 48.4796 201.237 48.5437 197.951 47.8095C202.588 47.8095 207.226 47.8095 211.863 47.8095C211.956 47.5177 212.053 47.226 212.147 46.9343C198.193 33.4176 181.05 24.8896 163.429 17.1117C163.523 16.8873 163.616 16.6661 163.71 16.4417C164.722 16.7526 165.78 16.961 166.738 17.3874C174.797 20.9558 182.833 24.5754 190.889 28.1501C193.843 29.4582 196.268 28.1341 196.381 25.5692C200.141 23.8091 203.775 22.1772 207.338 20.4043C208.67 19.7407 209.783 18.7372 208.106 17.1887C208.725 16.9418 209.341 16.6981 209.954 16.4577C210.566 16.2172 211.176 15.98 211.785 15.7427C215.146 14.0468 220.783 13.2484 222.93 9.51021C224.811 5.50587 230.715 6.04127 234.156 3.04683C234.579 2.54028 234.875 1.94717 235.011 1.23543C235.546 -1.7013 239.306 -1.43201 241.273 -3.56722C241.767 -3.89424 242.234 -4.25011 242.673 -4.64445C243.111 -5.03879 243.511 -5.47802 243.869 -5.96854C246.552 -9.70358 249.774 -12.1081 253.295 -14.5543C254.021 -15.1089 254.743 -15.7117 255.414 -16.3785C256.22 -17.4461 255.414 -18.5138 254.34 -19.046C254.876 -19.5782 255.414 -20.1136 255.956 -20.7708C256.401 -21.2389 256.888 -21.6973 257.384 -22.1526C259.88 -24.4353 262.751 -26.6956 263.199 -30.2543C261.59 -30.2543 260.245 -30.2543 258.636 -30.2543C259.171 -31.0558 259.71 -31.8541 260.503 -32.3542C261.141 -33.0531 261.773 -33.7456 262.402 -34.4349C264.918 -37.1889 267.368 -39.8724 269.819 -42.5558C269.723 -42.6809 269.629 -42.8027 269.532 -42.9277C264.437 -40.9656 259.435 -38.715 254.234 -37.0959C241.325 -33.0788 228.338 -29.3021 215.349 -25.5478C213.088 -24.8938 211.369 -24.1115 209.938 -22.0051C207.048 -17.7507 202.327 -16.5517 197.474 -15.8656C201.373 -17.7251 205.61 -19.1101 207.858 -23.2138C208.238 -23.9095 208.277 -24.7944 208.535 -25.8299C207.126 -25.9838 206.042 -26.0992 204.397 -26.2788C206.184 -27.6189 207.677 -28.5999 208.999 -29.7669C210.431 -31.0333 211.834 -32.3735 213.021 -33.8611C214.717 -35.9835 214.41 -36.6182 211.527 -37.253C213.524 -39.0869 215.439 -40.8278 217.326 -42.5975C217.897 -43.1329 218.519 -43.6843 218.87 -44.3576C219.28 -45.1399 219.415 -46.0664 219.667 -46.9289C218.851 -47.0507 218.038 -47.2014 217.219 -47.2847C216.894 -47.3168 216.555 -47.1982 215.365 -47.0186C216.523 -48.0221 217.139 -48.5062 217.697 -49.048C221.073 -52.3182 224.501 -55.5403 227.761 -58.9226C228.513 -59.7017 228.68 -61.0386 229.116 -62.1158C228.019 -62.2761 226.923 -62.4365 226.036 -62.5647C230.883 -67.9156 235.978 -73.5422 241.077 -79.1687C240.931 -79.4028 240.786 -79.6336 240.641 -79.8677C239.125 -79.499 237.613 -79.1271 235.294 -78.5628C236.82 -80.1498 237.836 -81.1405 238.774 -82.1985C241.109 -84.8338 243.289 -87.5076 243.002 -91.3998C242.947 -92.1596 243.747 -93.0765 244.334 -93.7754C248.284 -98.4883 250.37 -105.298 249.513 -110.944C249.348 -110.957 249.132 -111.043 249.026 -110.973C230.112 -98.3761 209.36 -89.3287 188.576 -80.4351C174.145 -74.2635 159.385 -68.8421 144.722 -63.2155C136.534 -60.0736 129.288 -55.5916 122.893 -49.9361C122.184 -49.3077 121.484 -48.6633 120.794 -48.0061C117.969 -45.7362 116.089 -42.7995 114.548 -39.5518C114.183 -38.731 113.851 -37.891 113.538 -37.0382C112.603 -34.4798 111.861 -31.8092 111.097 -29.2187C110.849 -28.3563 110.604 -27.4939 110.358 -26.6314C108.398 -19.7256 106.502 -12.8038 104.718 -5.84992C102.109 4.32283 96.0983 12.059 88.0717 18.4935C84.0117 21.7476 79.9129 24.9505 76.1302 28.6278C79.1164 26.7779 82.1026 24.9312 85.0888 23.0813C85.1855 23.1743 85.2823 23.2673 85.3758 23.3603C84.6212 24.0432 83.9246 24.803 83.1087 25.3993C71.0382 34.2159 57.8874 40.5061 42.9404 42.8786C38.6643 43.5583 34.4881 44.985 30.3345 46.2834C20.7117 49.2939 15.1005 56.0971 12.6335 65.5774C11.966 68.1358 11.7112 70.8609 11.6919 73.5123C11.6661 77.1896 10.747 80.3251 7.94144 82.8675C6.89014 83.8197 5.83881 84.7751 4.81009 85.7497C4.29413 86.2371 3.78461 86.7308 3.28156 87.2277C1.46274 89.0359 -0.952637 91.7066 0.388885 93.5725C1.99808 95.9738 5.49054 94.1047 8.19617 92.9313C8.90884 92.6363 9.62152 92.3381 10.331 92.0336C13.1721 90.8217 15.9906 89.5521 18.8058 88.2889C19.8926 87.8016 20.8278 86.9135 21.7372 86.1056C25.9036 82.3962 30.1894 78.9946 35.533 76.8979C38.1128 75.8848 40.3476 73.7592 42.4438 71.8227C46.4328 68.139 46.6683 64.5001 43.5563 60.047C43.3145 59.7007 43.0661 59.3544 42.7308 58.88C44.9236 59.954 46.5103 61.65 46.9908 64.3847C47.4003 66.7283 48.5483 66.6898 50.2607 66.1512C55.0044 64.654 59.703 63.0959 64.8498 63.6762C70.8415 64.3559 76.8623 64.8175 82.8765 65.2856C85.7434 65.5068 88.6328 65.6864 91.5029 65.5998C96.7626 65.4395 101.619 66.4751 106.45 68.7129C116.318 73.2879 126.828 75.8944 137.537 77.7859C139.778 78.1835 142.084 79.0139 144.022 80.1937C152.342 85.2592 161.201 89.1481 170.369 92.3478C172.82 93.2038 173.687 94.4285 173.32 96.9356C173.152 98.0866 173.623 99.3273 173.916 101.296C173.391 101.796 172.836 102.306 172.265 102.822C165.754 108.513 159.85 115.454 158.589 123.988C158.608 124.895 158.763 125.78 159.034 126.62C159.85 129.131 161.73 131.198 164.681 132C164.413 131.198 164.413 130.666 164.145 129.865C166.025 129.599 168.173 127.197 169.247 129.599C169.782 128.531 168.979 127.73 169.237 126.55C169.16 125.838 169.079 125.123 169.002 124.411C168.712 121.593 167.638 118.39 168.712 116.255C170.321 113.052 173.542 110.651 174.732 107.211C175.006 106.663 175.281 106.118 175.558 105.569C176.109 104.473 176.658 103.38 177.212 102.286C177.464 102.412 177.715 102.537 177.967 102.665C177.402 104.066 176.841 105.467 176.277 106.865C175.996 107.564 175.713 108.266 175.435 108.965C173.816 111.988 173.278 114.655 170.324 116.258C168.715 117.326 170.056 120.795 169.814 123.53C169.947 124.552 170.624 125.312 171.44 125.678C174.081 125.331 175.155 126.931 176.229 129.067C177.302 126.13 178.376 123.196 179.45 120.26C179.986 120.792 180.792 121.593 181.33 122.129C180.524 118.926 178.376 115.989 178.567 112.446C178.518 111.552 178.541 110.654 178.644 109.76C178.854 107.968 179.386 106.179 180.34 104.393C180.937 103.274 182.23 102.264 183.436 101.783C185.793 100.841 189.937 92.3093 188.722 90.0939C188.312 89.3469 187.374 88.8179 186.577 88.3595C184.007 86.8751 181.392 85.4676 178.792 84.0313C179.021 83.6306 179.25 83.2266 179.479 82.8258C192.246 90.0939 205.02 97.3652 217.593 104.524ZM160.688 -21.4473C160.672 -21.287 160.653 -21.1299 160.637 -20.9696C161.52 -20.7708 162.394 -20.4823 163.287 -20.3893C173.278 -19.3698 183.178 -19.7577 192.978 -22.1686C196.019 -22.9156 199.16 -23.2651 202.256 -23.7973C199.796 -20.6233 194.939 -18.1771 189.125 -17.7668C179.631 -17.0967 170.098 -16.9845 160.582 -16.6479C159.63 -16.6126 158.676 -16.6446 157.721 -16.6446C157.725 -16.3529 157.731 -16.0579 157.734 -15.7662C168.376 -14.0478 179.176 -14.4357 189.931 -13.8842C180.302 -10.6558 170.498 -9.7196 160.462 -10.6301C162.881 -10.146 165.3 -9.66509 167.718 -9.18098C167.702 -9.06236 167.686 -8.94373 167.67 -8.82511C162.13 -9.20984 156.586 -9.59457 151.046 -9.97609C151.03 -9.68434 151.011 -9.39258 150.994 -9.10083C159.827 -7.01369 168.892 -6.80853 177.98 -6.45266C177.57 -5.89801 177.17 -5.70885 176.78 -5.72167C170.579 -5.91724 164.381 -6.1545 158.179 -6.33404C157.115 -6.3661 155.803 -7.62285 154.967 -5.81464C154.916 -5.69923 154.003 -6.01343 153.484 -6.07114C151.497 -6.29236 149.508 -6.48792 147.521 -6.69311C147.47 -6.41739 147.418 -6.14487 147.37 -5.86916C148.382 -5.48444 149.366 -4.90735 150.414 -4.74705C156.022 -3.89424 161.656 -3.1889 167.264 -2.32968C168.67 -2.11488 170.014 -1.51856 171.388 -1.09857C171.346 -0.793999 171.301 -0.489418 171.259 -0.184845C169.031 0.0780563 166.786 0.651917 164.577 0.542915C157.899 0.212692 151.23 -0.386826 144.558 -0.867729C144 -0.909409 143.439 -0.874146 142.881 -0.874146C142.839 -0.656136 142.8 -0.441322 142.758 -0.223312C150.498 1.45665 158.237 3.13339 165.977 4.81335C165.941 5.04419 165.903 5.27504 165.867 5.50587C159.489 6.50936 153.245 5.47701 146.996 4.01826C152.281 6.59913 157.563 9.18318 162.849 11.764C162.836 12.1359 162.823 12.5079 162.81 12.8798C161.159 13.3062 159.453 14.2263 157.863 14.0596C154.677 13.7294 151.549 12.8284 148.408 12.1263C145.551 11.4883 142.707 10.8054 139.856 10.1418C139.727 10.5522 139.598 10.9625 139.469 11.3729C145.286 13.6236 151.104 15.8742 156.918 18.1248C156.864 18.3973 156.806 18.6698 156.751 18.9424C149.653 17.8074 142.555 16.6725 135.46 15.5408C135.364 15.9191 135.264 16.2942 135.167 16.6725C138.469 17.8363 141.775 19.0001 145.157 20.1895C145.835 20.4268 146.515 20.6672 147.199 20.9077C148.585 20.9782 149.927 22.0458 151.269 22.3151C147.512 23.9149 143.751 23.6488 139.966 23.3282C139.005 23.1871 138.047 23.0237 137.092 22.8537C136.134 22.6838 135.18 22.5107 134.222 22.344C134.122 22.6646 134.022 22.9852 133.922 23.3026C134.835 23.7546 135.751 24.2067 136.686 24.6715C138.385 25.784 139.995 26.0533 141.607 26.8516C141.204 27.4512 140.717 28.0026 140.165 28.4835C139.614 28.9644 138.998 29.3716 138.337 29.6826C137.74 29.9038 137.153 30.0513 136.573 30.1507C135.989 30.2501 135.412 30.2982 134.835 30.3142C133.925 30.452 132.935 30.3174 131.936 30.1859C130.936 30.0545 129.93 29.9198 128.991 30.0545C129.798 31.3882 131.675 31.3882 132.481 32.7219C130.065 33.7895 129.259 36.4569 126.844 37.5246C130.872 40.7274 133.822 36.1908 136.47 33.7222C137.095 33.2317 137.711 32.7315 138.305 32.2282C138.895 31.728 139.462 31.2279 140.001 30.747C140.569 30.2725 141.149 29.8172 141.746 29.3908C145.902 26.4028 150.695 24.7934 156.531 26.1207C157.083 26.2938 157.615 26.5278 158.124 26.8196C159.144 27.3999 160.076 28.2046 160.911 29.1857C164.039 32.8726 166.709 36.9475 169.26 40.426C169.186 39.913 169.015 38.7268 168.844 37.5406C169.044 37.4829 169.247 37.4252 169.447 37.3675C170.927 39.7784 172.407 42.1861 174.136 45.001C173.752 43.2377 173.478 41.9745 173.207 40.7145C173.407 40.6376 173.604 40.5607 173.804 40.4869C175.587 43.3724 177.37 46.2578 179.154 49.1464C179.263 49.0983 179.373 49.0502 179.479 48.9989C178.77 46.8669 178.06 44.7317 177.351 42.5997C177.593 42.4939 177.831 42.3881 178.073 42.2823C180.227 46.2225 182.378 50.1595 184.478 54.0004C184.284 52.8141 184.068 51.4772 183.852 50.1371C184.055 50.073 184.255 50.0089 184.458 49.9447C186.567 53.7375 188.676 57.527 190.782 61.3197C190.863 61.2877 190.943 61.2556 191.024 61.2236C190.166 58.6748 189.305 56.126 188.447 53.5804C188.686 53.481 188.925 53.3816 189.163 53.279C191.85 58.71 194.536 64.1443 197.229 69.5945C196.935 68.341 196.642 67.0906 196.348 65.8403C196.629 65.7473 196.906 65.6511 197.187 65.5581C200.041 72.3197 202.895 79.0812 205.971 86.3653C204.904 82.2103 203.969 78.5618 203.03 74.9133C203.259 74.8236 203.491 74.7338 203.72 74.644C206.635 80.9535 209.547 87.2598 212.659 93.9989C211.569 93.7776 211.124 93.6879 210.537 93.5661C211.021 94.5792 211.44 95.4352 211.84 96.304C212.243 97.1761 212.621 98.0577 213.291 99.5677C196.106 90.2157 180.356 79.8955 162.642 72.5601C165.255 75.3429 167.554 77.8276 169.892 80.277C173.562 84.1211 177.106 88.1126 182.24 90.1869C183.871 90.8474 184.468 92.2131 183.575 93.8129C182.604 95.557 181.524 97.2626 180.327 98.8592C179.247 100.299 176.087 99.9621 175.358 98.4489C174.603 96.8843 176.119 91.6104 177.706 90.5396C177.132 90.2478 176.612 89.9753 176.087 89.7188C166.657 85.1502 157.083 80.8221 149.285 73.5572C148.666 72.9801 147.56 72.7909 146.647 72.6755C141.881 72.0856 137.07 71.7778 132.336 70.9956C125.976 69.9472 119.768 68.3313 114.044 65.3465C113.225 64.9201 112.419 64.4681 111.623 63.984C109.394 62.8683 108.32 60.733 108.591 58.3317C112.081 59.6654 115.57 60.733 119.056 61.8551C119.772 62.0796 120.488 62.304 121.2 62.5284C122.626 62.9741 124.048 63.4197 125.47 63.8653C125.551 63.705 125.628 63.5415 125.709 63.3812C124.241 62.6406 122.777 61.9 121.3 61.1562C120.562 60.7843 119.823 60.4092 119.085 60.0341C115.573 58.0656 112.081 56.1997 108.591 54.0645C111.813 54.5967 115.034 55.1321 118.256 55.6643C113.425 52.1954 107.517 52.7276 102.419 50.3262C104.702 50.3262 107.05 50.3936 109.397 50.4256C110.181 50.4353 110.965 50.4449 111.745 50.4449C112.587 50.3872 113.341 50.4224 114.093 50.4417C114.767 50.3262 115.576 50.5956 116.402 50.3455C116.408 50.0826 116.421 49.56 116.431 49.2971C115.454 49.2715 114.499 49.0599 113.564 48.9092C112.629 48.7585 111.703 48.6591 110.784 48.8643C109.859 48.8002 108.936 48.7361 108.017 48.6751C103.422 48.3642 98.891 48.0948 94.3633 47.9281C97.8526 46.8605 101.613 46.5944 105.102 45.5268C102.419 45.5268 99.465 45.5268 96.6626 45.5589C95.7952 45.639 94.9309 45.7416 94.0731 45.8699C85.4919 47.1427 77.2815 50.7142 68.855 53.9747C68.4003 51.3169 68.1133 49.0951 67.6199 46.9247C67.1814 44.9978 67.9037 44.0713 69.5613 42.994C75.324 39.2494 80.9546 35.2963 86.5141 31.2567C88.2523 29.9936 89.5971 28.1982 91.1224 26.6465C91.0289 26.5695 90.9354 26.4958 90.8451 26.4188C86.9979 28.7945 83.1507 31.1702 79.813 33.2285C82.8249 29.9679 86.1788 26.422 89.4391 22.7896C98.5685 12.6104 105.902 1.53358 108.723 -12.1947C109.907 -17.9559 111.532 -23.6338 113.209 -29.2957C113.448 -30.1036 113.69 -30.9115 113.935 -31.7194C114.618 -34.063 115.296 -36.5028 116.263 -38.7503C116.586 -39.5005 116.94 -40.2282 117.34 -40.9239C118.256 -42.2769 119.059 -43.6106 120.336 -44.6365C120.997 -45.3194 121.671 -45.9863 122.358 -46.6371C129.217 -53.1518 137.108 -58.2205 146.186 -61.5772C156.17 -65.2706 166.093 -69.1274 176.064 -72.8497C177.877 -73.5261 179.799 -73.9076 181.669 -74.4238C181.775 -74.2026 181.879 -73.9782 181.985 -73.757C181.205 -73.119 180.492 -72.3655 179.634 -71.859C175.203 -69.2461 170.83 -66.5113 166.261 -64.1581C154.903 -58.3103 142.965 -53.8699 130.768 -50.0932C129.478 -49.6957 128.259 -49.0705 127.008 -48.5543C128.082 -48.1503 128.943 -48.2305 129.778 -48.4325C144.229 -51.911 157.663 -57.9288 170.917 -64.4627C173.642 -65.806 176.796 -66.2869 179.753 -67.1686C179.95 -66.7293 180.147 -66.2901 180.343 -65.8509C171.749 -59.6248 162.075 -55.319 152.207 -51.3884C142.99 -47.7175 133.406 -45.5631 123.519 -44.4634C122.619 -44.364 121.719 -44.271 120.817 -44.1877C121.848 -43.5465 122.819 -43.3734 123.79 -43.383C132.742 -43.492 141.236 -45.8644 149.559 -48.8364C157.276 -51.5904 164.88 -54.6554 172.549 -57.5504C173.362 -57.8582 174.258 -57.9384 175.116 -58.1243C175.255 -57.8486 175.393 -57.5697 175.535 -57.294C172.617 -55.1652 169.821 -52.8376 166.757 -50.9428C154.938 -43.633 141.746 -41.1259 128.082 -40.3469C142.494 -39.1542 155.874 -44.6814 170.169 -46.9128C167.799 -43.0143 164.365 -41.1259 160.637 -40.3148C152.723 -38.5932 144.706 -37.3172 136.708 -35.9834C134.477 -35.6115 132.174 -35.6308 129.901 -35.5635C127.663 -35.4961 125.418 -35.5474 123.177 -35.5474C123.196 -35.2685 123.213 -34.9896 123.232 -34.7106C137.095 -33.3 150.646 -36.0604 164.839 -38.0481C163.8 -37.2338 163.223 -36.5926 162.504 -36.2495C158.582 -34.3708 154.764 -32.1522 150.659 -30.8185C140.739 -27.5965 130.501 -27.8754 120.255 -28.9173C118.527 -29.0937 116.782 -29.1065 115.044 -29.1963C115.038 -28.8148 115.031 -28.4332 115.025 -28.0549C128.885 -25.5254 142.836 -26.8879 156.799 -27.7343C144.725 -20.8253 131.71 -20.2001 118.272 -22.0725C123.406 -19.3089 128.921 -19.3217 134.396 -19.2287C139.888 -19.1357 145.383 -19.2095 150.83 -19.2095C150.253 -18.8376 149.559 -18.3374 148.821 -17.9142C139.014 -12.3389 128.753 -12.0312 118.182 -15.3205C116.976 -15.6956 115.734 -15.9521 114.506 -16.2631C114.422 -15.9008 114.341 -15.5418 114.257 -15.1795C118.504 -12.355 123.438 -11.7522 128.434 -11.4829C133.516 -11.2104 138.608 -11.0822 144.39 -10.8642C143.116 -10.1428 142.491 -9.70358 141.804 -9.41182C133.403 -5.84671 124.902 -5.38184 116.273 -8.61031C115.176 -9.02068 113.999 -9.20983 112.858 -9.50158C112.755 -9.07838 112.655 -8.6552 112.551 -8.232C119.959 -4.34629 128.311 -3.92309 136.444 -2.61823C127.831 1.3316 119.549 -0.306686 111.29 -3.9263C117.16 1.93433 125.289 1.30917 132.768 3.8227C123.777 7.14095 115.554 5.50266 107.359 2.29984C113.986 6.97744 121.658 8.3945 129.382 9.72179C121.197 13.4953 114.244 10.4335 107.482 5.97073C112.261 12.7259 120.02 13.5722 127.64 15.9928C121.162 17.3457 115.686 16.5827 110.462 13.8095C109.343 13.2164 108.108 12.8349 106.927 12.354C106.827 12.5592 106.727 12.7675 106.631 12.9727C107.095 13.46 107.466 14.1461 108.037 14.4058C113.796 17.0348 119.591 19.5964 125.193 22.0939C116.934 25.0274 109.31 22.0554 101.938 17.4516C103.918 21.3469 107.592 22.687 111.152 24.0047C114.641 25.2967 118.279 26.1944 122.213 27.3742C113.635 29.6185 106.695 26.5631 99.6037 21.5328C101.722 25.6654 107.108 28.3617 112.825 29.2401C113.78 29.3876 114.741 29.4838 115.699 29.5255C116.337 29.5191 117.002 29.5159 117.679 29.4966C119.865 29.7723 121.745 28.9708 123.841 28.4611C124.651 28.1758 125.415 27.8327 126.121 27.4287C126.828 27.028 127.476 26.5663 128.053 26.0437C126.782 25.8706 125.821 25.7584 124.87 25.6045C123.825 25.4346 122.787 25.2262 121.51 24.9889C124.741 23.854 127.611 22.8441 130.485 21.8342C130.446 21.5168 130.404 21.1994 130.365 20.882C127.356 20.1767 124.344 19.4746 121.336 18.7692C125.476 17.9421 129.588 17.7209 132.993 14.7489C130.236 14.3738 127.476 13.9986 124.719 13.6235C127.947 12.1456 131.468 11.732 134.412 8.63815C131.8 8.1797 129.727 7.81422 127.65 7.44873C131.333 6.1054 135.07 5.55395 138.027 3.1879C137.985 2.92821 137.947 2.66531 137.905 2.40562C136.134 2.11387 134.364 1.82213 131.862 1.40855C135.938 -0.335533 139.788 -0.941483 142.661 -4.42644C140.249 -4.65086 138.543 -4.80796 136.834 -4.96505C141.272 -7.10989 145.706 -8.75459 149.079 -12.0825C148.95 -12.3902 148.818 -12.6948 148.689 -12.9994C146.863 -12.9994 145.041 -12.9994 143.216 -12.9994C147.689 -15.452 152.152 -17.5904 155.674 -21.1171C155.587 -21.3671 155.499 -21.6172 155.412 -21.8673C152.352 -21.5755 149.292 -21.2838 146.231 -20.9952C152.055 -23.4222 157.912 -25.535 162.788 -29.4463C162.675 -29.7381 162.565 -30.0298 162.452 -30.3216C159.411 -30.0234 156.373 -29.7221 153.332 -29.4239C158.921 -32.3542 164.626 -34.9447 169.037 -40.3084C167.47 -40.3084 166.509 -40.3084 165.048 -40.3084C168.389 -42.5943 171.108 -44.8129 172.062 -48.8525C169.631 -48.3363 167.509 -47.8875 165.387 -47.4354C167.938 -49.6187 170.682 -51.3083 173.165 -53.3153C175.616 -55.2966 177.799 -57.6017 180.102 -59.7626C179.944 -60.0576 179.789 -60.3525 179.631 -60.6475C177.996 -60.4551 176.358 -60.2627 173.968 -59.9806C177.461 -62.3884 181.105 -63.8888 181.64 -68.3259C180.208 -68.2233 179.218 -68.156 177.773 -68.0534C178.47 -68.7107 178.837 -69.0441 179.192 -69.3968C181.034 -71.2338 183.31 -72.8272 184.542 -75.0073C185.31 -76.3667 186.016 -76.9534 187.319 -77.4086C192.346 -79.1623 197.412 -80.8327 202.346 -82.8236C217.835 -89.0754 233.205 -95.5804 246.259 -106.34C246.43 -106.481 246.739 -106.455 247.252 -106.561C247.155 -105.785 247.126 -105.131 246.988 -104.5C245.717 -98.6326 242.073 -94.4167 237.349 -91.0086C223.888 -81.3008 209.061 -74.4944 192.936 -70.4547C191.759 -70.1598 190.631 -69.6757 189.479 -69.2781C189.612 -68.9639 189.744 -68.6497 189.876 -68.3388C209.422 -69.4513 225.643 -78.4282 240.848 -90.3226C240.457 -88.5015 239.977 -86.7671 238.88 -85.6161C236.249 -82.8525 233.656 -79.8324 230.46 -77.8511C219.515 -71.0671 207.703 -66.0561 195.391 -62.2313C193.691 -61.7023 191.924 -61.3881 190.189 -60.9713C190.86 -60.5994 191.472 -60.5802 192.05 -60.7052C204.133 -63.3117 215.968 -66.5851 226.623 -73.1542C228.145 -74.0936 229.948 -74.5809 231.621 -75.2798C231.741 -75.0522 231.86 -74.8246 231.979 -74.597C227.139 -68.9607 221.395 -64.3376 215.162 -60.2948C208.928 -56.252 202.166 -53.3538 194.594 -51.4141C195.59 -51.241 196.193 -51.1352 196.793 -51.0294C196.803 -50.837 196.813 -50.6479 196.826 -50.4555C190.25 -49.2404 183.671 -48.0253 177.096 -46.8102C177.148 -46.5377 177.199 -46.2652 177.251 -45.9927C184.887 -45.4893 192.266 -47.3585 199.496 -49.3622C206.752 -51.3724 213.759 -54.2643 220.551 -56.656C215.533 -51.988 209.747 -47.5476 202.811 -45.1751C196.097 -42.8796 189.125 -41.3343 182.265 -39.4588C182.233 -39.5485 182.201 -39.6383 182.166 -39.7281C184.707 -39.9269 187.245 -40.1224 189.786 -40.3212C189.815 -40.0166 189.844 -39.7121 189.87 -39.4043C182.459 -38.6156 175.052 -37.8301 167.641 -37.0414C167.689 -36.7369 167.741 -36.4291 167.789 -36.1245C183.143 -34.7748 197.638 -38.9683 212.043 -43.7581C203.917 -34.3227 192.543 -33.5725 181.514 -31.7162C184.171 -31.7162 186.825 -31.7162 189.483 -31.7162C189.489 -31.5014 189.496 -31.2866 189.502 -31.0718C181.221 -30.5172 172.936 -29.9625 164.655 -29.4079C164.684 -29.1321 164.713 -28.8596 164.739 -28.5839C178.963 -27.1668 192.907 -28.7186 206.606 -33.1878C201.705 -27.9523 195.371 -25.8812 188.68 -24.7527C182.078 -23.6402 175.426 -22.8227 168.792 -21.8769C168.779 -21.9442 168.766 -22.0083 168.753 -22.0757C170.579 -21.9795 172.404 -21.8865 174.229 -21.7903C174.226 -21.6813 174.223 -21.5755 174.223 -21.4665C169.698 -21.4473 165.193 -21.4473 160.688 -21.4473ZM2.19156 93.0691C1.20154 91.4373 3.88458 90.1035 4.6037 88.8852C5.09387 88.4043 5.59372 87.9234 6.0968 87.4425C7.10294 86.4807 8.11877 85.5285 9.14105 84.586C11.8821 82.0628 13.5752 79.0587 13.7848 75.2917C13.8203 74.6408 13.9847 73.9932 14.0782 73.429C15.1811 73.5155 16.6129 73.9836 16.9064 73.5957C18.8058 71.0982 19.8765 72.8711 21.189 74.1439C21.7952 74.7306 22.5531 75.2532 23.3399 75.5449C26.1842 76.5997 26.3519 76.9171 24.13 79.0876C21.7146 81.4504 19.1122 83.6241 16.2227 86.2082C17.4288 85.7048 18.1705 85.3971 18.9122 85.0893C16.0454 87.7215 12.8173 89.4976 9.39902 90.8313C8.54443 91.1647 7.677 91.4725 6.81274 91.7514C5.94849 92.0336 5.10355 92.2836 4.27798 92.5145C3.57178 92.71 2.87845 92.8928 2.19156 93.0691ZM67.7392 56.2093C67.5232 56.2606 67.3039 56.3087 67.0878 56.36C67.1136 61.8199 67.1136 61.8199 61.6605 61.666C61.5734 61.6628 61.4863 61.6564 61.3992 61.666C59.7288 61.8199 59.0097 61.1594 59.1612 59.4122C59.632 54.0068 59.158 48.6944 57.6165 43.4557C57.4295 42.8209 58.1519 41.702 58.7549 41.1249C59.3386 40.5639 60.348 40.4741 61.1155 40.0669C62.744 39.2045 63.8275 39.6213 64.25 41.3782C65.4432 46.3123 66.5783 51.2656 67.7392 56.2093ZM25.8037 58.4888C25.3748 60.5984 27.616 63.6986 23.7882 63.9327C22.5885 64.0064 20.4634 63.2337 20.9052 61.044C21.4341 58.4055 23.614 58.5658 25.8037 58.4888ZM234.098 91.2545C233.866 91.3924 233.637 91.5302 233.405 91.6649C231.051 88.3915 228.693 85.1214 226.339 81.848C226.555 81.6941 226.774 81.5402 226.991 81.3895C229.358 84.6789 231.728 87.9651 234.098 91.2545ZM227.455 92.8351C227.245 92.9633 227.036 93.0883 226.826 93.2166C224.836 90.0843 222.847 86.952 220.857 83.8197C221.105 83.669 221.357 83.5183 221.605 83.3709C223.556 86.5256 225.504 89.6803 227.455 92.8351ZM212.05 87.1668C211.776 87.2341 211.502 87.3047 211.224 87.372C210.202 83.9383 209.183 80.5047 208.161 77.071C208.396 77.0005 208.632 76.9331 208.87 76.8626C209.928 80.2963 210.989 83.7331 212.05 87.1668ZM237.561 85.3105C237.352 85.4772 237.145 85.6407 236.936 85.8074C234.517 83.2106 232.099 80.6137 229.677 78.0168C229.873 77.8372 230.07 77.6609 230.267 77.4814C232.698 80.0911 235.13 82.7008 237.561 85.3105Z" fill="black" fill-opacity="0.05"/>
</svg>
