<svg width="309" height="213" viewBox="0 0 309 213" fill="none" xmlns="http://www.w3.org/2000/svg">
<g style="mix-blend-mode:multiply">
<path d="M19.4877 177.723C21.3112 171.865 23.1176 166.073 24.9197 160.277C24.4477 160.067 23.9714 159.857 23.4994 159.647C21.4699 173.544 11.3439 180.835 -0.742935 186.746C1.94733 181.851 4.63758 176.953 7.32785 172.058C1.47535 178.406 -4.13258 184.823 -11.6584 189.294C-12.0703 189.117 -12.478 188.936 -12.8899 188.759C-11.4739 184.181 -10.0537 179.608 -8.63779 175.03C-8.71503 174.932 -8.78797 174.833 -8.8652 174.734C-12.0446 179.509 -15.224 184.28 -18.9569 189.886C-19.6262 180.929 -16.8287 173.907 -12.7096 167.197C-12.9885 167.065 -13.2674 166.933 -13.5463 166.802C-15.6874 169.7 -17.8284 172.594 -20.4629 176.158C-20.0553 166.719 -14.8335 159.915 -11.4997 152.296C-14.0312 155.107 -16.567 157.919 -19.0985 160.726C-19.4246 160.557 -19.7507 160.388 -20.0725 160.22C-17.0561 154.037 -14.4045 147.661 -10.9505 141.712C-4.18835 130.067 4.74487 119.928 16.0422 112.243C20.6247 109.127 26.9062 108.077 32.5828 106.748C36.7834 105.764 41.25 105.846 45.6222 104.904C39.4522 104.904 33.2822 104.904 27.1122 104.904C26.9878 104.529 26.859 104.154 26.7346 103.78C45.3004 86.4251 68.1097 75.4755 91.554 65.4891C91.4296 65.201 91.3051 64.9169 91.1807 64.6288C89.8334 65.0281 88.4261 65.2957 87.1518 65.8431C76.4294 70.4247 65.737 75.0721 55.0188 79.6618C51.0886 81.3413 47.862 79.6413 47.7118 76.3481C42.7088 74.0882 37.8732 71.993 33.132 69.7166C31.36 68.8645 29.8797 67.5761 32.1108 65.5879C31.287 65.271 30.4675 64.9581 29.6523 64.6494C28.8371 64.3406 28.0261 64.036 27.2152 63.7314C22.7443 61.5538 15.2442 60.5289 12.3866 55.7292C9.8851 50.5878 2.02885 51.2752 -2.54931 47.4305C-3.11139 46.7801 -3.50613 46.0186 -3.68634 45.1047C-4.39859 41.3341 -9.40154 41.6799 -12.0189 38.9384C-12.6753 38.5185 -13.2975 38.0616 -13.881 37.5553C-14.4645 37.049 -14.9966 36.485 -15.4729 35.8552C-19.0427 31.0596 -23.3291 27.9723 -28.0145 24.8315C-28.9799 24.1194 -29.941 23.3455 -30.8335 22.4893C-31.9062 21.1185 -30.8335 19.7478 -29.4047 19.0644C-30.117 18.3811 -30.8335 17.6937 -31.5543 16.8498C-32.1465 16.2488 -32.7944 15.6602 -33.4551 15.0757C-36.7761 12.1448 -40.5948 9.24273 -41.1912 4.67354C-39.0502 4.67354 -37.261 4.67354 -35.1199 4.67354C-35.8322 3.64444 -36.5487 2.61946 -37.6042 1.9773C-38.4538 1.07993 -39.2947 0.190796 -40.1314 -0.694229C-43.4782 -4.23021 -46.7391 -7.67564 -50 -11.1211C-49.8713 -11.2816 -49.7468 -11.438 -49.6181 -11.5985C-42.8388 -9.07932 -36.184 -6.18961 -29.2631 -4.11083C-12.0875 1.047 5.19109 5.8961 22.474 10.7164C25.4817 11.5561 27.7687 12.5606 29.6737 15.265C33.5182 20.7275 39.7998 22.267 46.2573 23.1479C41.0698 20.7604 35.4318 18.9821 32.4412 13.7131C31.9349 12.8199 31.8834 11.6837 31.5402 10.3541C33.4152 10.1566 34.8569 10.0084 37.0451 9.77786C34.6681 8.05721 32.6815 6.7976 30.9223 5.29923C29.0173 3.67326 27.1508 1.9526 25.5718 0.0425949C23.3149 -2.68246 23.7226 -3.49748 27.5584 -4.31253C24.9025 -6.66711 22.3538 -8.90232 19.8438 -11.1746C19.0843 -11.862 18.2562 -12.57 17.7885 -13.4345C17.2436 -14.4389 17.0634 -15.6285 16.7287 -16.7358C17.8143 -16.8922 18.8955 -17.0857 19.9854 -17.1927C20.4187 -17.2339 20.8692 -17.0816 22.4525 -16.8511C20.9122 -18.1395 20.0926 -18.7611 19.3504 -19.4567C14.858 -23.6555 10.297 -27.7924 5.95913 -32.1352C4.9594 -33.1355 4.73628 -34.8521 4.15704 -36.2352C5.61587 -36.441 7.0747 -36.6468 8.25463 -36.8115C1.80573 -43.6817 -4.97354 -50.906 -11.7571 -58.1302C-11.564 -58.4307 -11.371 -58.7271 -11.1779 -59.0276C-9.16125 -58.5542 -7.14892 -58.0767 -4.06392 -57.3523C-6.09341 -59.3899 -7.44498 -60.6618 -8.69357 -62.0202C-11.8 -65.4039 -14.7005 -68.837 -14.3187 -73.8343C-14.2457 -74.8099 -15.3098 -75.9872 -16.0907 -76.8845C-21.3468 -82.9356 -24.1229 -91.6788 -22.9816 -98.9278C-22.7627 -98.9443 -22.4752 -99.0554 -22.3337 -98.9649C2.83122 -82.7916 30.4418 -71.1751 58.0952 -59.7562C77.2961 -51.8322 96.9345 -44.8714 116.444 -37.6471C127.338 -33.613 136.979 -27.8583 145.488 -20.597C146.432 -19.7902 147.363 -18.9628 148.281 -18.1189C152.04 -15.2045 154.541 -11.4339 156.592 -7.264C157.077 -6.21021 157.519 -5.1317 157.935 -4.03674C159.18 -0.751862 160.166 2.6771 161.183 6.00315C161.514 7.11046 161.84 8.21774 162.166 9.32505C164.775 18.1918 167.297 27.079 169.67 36.0075C173.141 49.0688 181.139 59.0017 191.819 67.2633C197.221 71.4414 202.674 75.5537 207.707 80.2752C203.734 77.9 199.761 75.529 195.788 73.1538C195.659 73.2732 195.53 73.3926 195.406 73.512C196.41 74.3888 197.337 75.3643 198.422 76.13C214.482 87.4501 231.98 95.5264 251.867 98.5725C257.556 99.4452 263.113 101.277 268.639 102.944C281.443 106.809 288.908 115.544 292.191 127.717C293.079 131.001 293.418 134.5 293.444 137.905C293.478 142.626 294.701 146.652 298.434 149.916C299.832 151.139 301.231 152.366 302.6 153.617C303.286 154.243 303.964 154.877 304.634 155.515C307.054 157.836 310.267 161.265 308.482 163.661C306.341 166.744 301.695 164.344 298.095 162.838C297.147 162.459 296.198 162.076 295.254 161.685C291.474 160.129 287.724 158.499 283.978 156.877C282.532 156.251 281.288 155.111 280.078 154.074C274.535 149.311 268.832 144.944 261.723 142.252C258.29 140.951 255.317 138.222 252.528 135.735C247.22 131.006 246.907 126.334 251.047 120.616C251.369 120.171 251.7 119.727 252.146 119.117C249.228 120.496 247.117 122.674 246.478 126.185C245.933 129.194 244.405 129.145 242.127 128.453C235.815 126.531 229.564 124.531 222.716 125.276C214.744 126.148 206.733 126.741 198.731 127.342C194.917 127.626 191.072 127.857 187.253 127.745C180.255 127.54 173.794 128.869 167.366 131.742C154.237 137.617 140.253 140.963 126.004 143.392C123.022 143.902 119.954 144.968 117.375 146.483C106.305 152.987 94.5189 157.98 82.3205 162.088C79.0595 163.188 77.9053 164.76 78.3945 167.979C78.6176 169.457 77.9912 171.05 77.6007 173.577C78.3001 174.219 79.0381 174.874 79.7975 175.537C88.4604 182.843 96.3167 191.755 97.9943 202.713C97.9686 203.878 97.7626 205.014 97.4022 206.093C96.3167 209.316 93.8152 211.971 89.8892 213C90.2454 211.971 90.2453 211.288 90.6015 210.259C88.1 209.917 85.2424 206.834 83.8136 209.917C83.1014 208.546 84.1698 207.517 83.8265 206.002C83.9295 205.088 84.0367 204.17 84.1397 203.257C84.5259 199.638 85.9547 195.526 84.5259 192.784C82.3848 188.672 78.0984 185.589 76.5152 181.172C76.1504 180.468 75.7857 179.768 75.4167 179.064C74.683 177.657 73.9536 176.253 73.2156 174.849C72.8809 175.01 72.5463 175.17 72.2116 175.335C72.9625 177.134 73.7091 178.933 74.4599 180.727C74.8332 181.625 75.2108 182.526 75.5798 183.424C77.7337 187.305 78.4503 190.73 82.3805 192.789C84.5216 194.159 82.7366 198.613 83.0584 202.125C82.8825 203.438 81.9815 204.413 80.896 204.882C77.3819 204.438 75.9531 206.492 74.5243 209.234C73.0955 205.463 71.6667 201.696 70.2379 197.926C69.5256 198.609 68.453 199.638 67.7364 200.326C68.8091 196.213 71.6667 192.443 71.4135 187.894C71.4779 186.746 71.4478 185.593 71.3105 184.445C71.0317 182.144 70.3237 179.847 69.0536 177.554C68.2599 176.117 66.5393 174.82 64.9346 174.203C61.7981 172.993 56.2846 162.039 57.9022 159.195C58.4471 158.236 59.6957 157.556 60.7555 156.968C64.1751 155.062 67.6549 153.255 71.1132 151.411C70.8086 150.896 70.5039 150.377 70.1993 149.863C53.2124 159.195 36.217 168.531 19.4877 177.723ZM95.2011 15.9813C95.2225 16.1871 95.2483 16.3888 95.2697 16.5946C94.0941 16.8498 92.9313 17.2203 91.7428 17.3397C78.4502 18.6487 65.2779 18.1506 52.2385 15.0551C48.1924 14.096 44.0132 13.6473 39.8942 12.964C43.168 17.0392 49.6297 20.18 57.3658 20.7069C69.9976 21.5672 82.6809 21.7113 95.3427 22.1435C96.6084 22.1888 97.8785 22.1476 99.1485 22.1476C99.1442 22.5222 99.1357 22.9009 99.1314 23.2755C84.9721 25.4819 70.6026 24.9838 56.2931 25.6918C69.1051 29.837 82.1488 31.039 95.5014 29.87C92.2834 30.4915 89.0654 31.109 85.8474 31.7306C85.8689 31.8829 85.8903 32.0352 85.9118 32.1875C93.2832 31.6935 100.659 31.1996 108.03 30.7097C108.052 31.0843 108.077 31.4589 108.099 31.8335C96.3467 34.5133 84.2856 34.7767 72.1944 35.2336C72.7393 35.9458 73.2714 36.1886 73.7906 36.1722C82.0416 35.9211 90.2883 35.6164 98.5392 35.3859C99.9552 35.3448 101.701 33.7312 102.813 36.0528C102.881 36.201 104.096 35.7976 104.786 35.7235C107.43 35.4394 110.077 35.1883 112.72 34.9249C112.789 35.2789 112.857 35.6288 112.922 35.9828C111.574 36.4768 110.266 37.2177 108.871 37.4235C101.41 38.5185 93.9139 39.4241 86.4524 40.5273C84.5816 40.8031 82.7924 41.5688 80.9646 42.108C81.0204 42.4991 81.0804 42.8901 81.1362 43.2812C84.1011 43.6187 87.0874 44.3555 90.0265 44.2156C98.9125 43.7916 107.786 43.0219 116.663 42.4044C117.405 42.3509 118.152 42.3961 118.894 42.3961C118.95 42.6761 119.002 42.9519 119.057 43.2318C108.76 45.3888 98.462 47.5416 88.1644 49.6986C88.2116 49.995 88.263 50.2914 88.3102 50.5878C96.7972 51.8762 105.104 50.5507 113.419 48.6778C106.387 51.9915 99.3588 55.3093 92.3263 58.623C92.3435 59.1005 92.3607 59.578 92.3778 60.0555C94.5747 60.603 96.8444 61.7844 98.9597 61.5703C103.199 61.1463 107.361 59.9896 111.54 59.0881C115.342 58.269 119.126 57.3922 122.919 56.5401C123.091 57.067 123.262 57.5939 123.434 58.1208C115.693 61.0105 107.953 63.9002 100.217 66.7899C100.29 67.1398 100.367 67.4897 100.44 67.8396C109.884 66.3824 119.328 64.9252 128.767 63.4721C128.896 63.9578 129.029 64.4394 129.158 64.9252C124.764 66.4194 120.366 67.9137 115.865 69.4409C114.964 69.7455 114.059 70.0542 113.149 70.3629C111.304 70.4535 109.519 71.8242 107.734 72.17C112.733 74.2241 117.736 73.8824 122.773 73.4708C124.052 73.2897 125.326 73.0797 126.596 72.8616C127.87 72.6434 129.14 72.4211 130.415 72.207C130.548 72.6187 130.681 73.0303 130.814 73.4379C129.6 74.0183 128.381 74.5987 127.137 75.1956C124.875 76.6239 122.734 76.9697 120.589 77.9947C121.125 78.7645 121.773 79.4725 122.507 80.09C123.241 80.7074 124.06 81.2302 124.94 81.6295C125.734 81.9135 126.515 82.1029 127.287 82.2305C128.063 82.3581 128.831 82.4198 129.6 82.4404C130.809 82.6174 132.127 82.4445 133.457 82.2758C134.787 82.107 136.126 81.9341 137.374 82.107C136.302 83.8194 133.804 83.8194 132.732 85.5318C135.945 86.9026 137.018 90.3274 140.232 91.6982C134.873 95.8105 130.947 89.9857 127.424 86.8161C126.592 86.1863 125.772 85.5442 124.983 84.8979C124.198 84.2557 123.442 83.6136 122.726 82.9961C121.971 82.3869 121.198 81.8024 120.405 81.2549C114.874 77.4184 108.498 75.352 100.732 77.0562C99.9981 77.2785 99.2901 77.5789 98.6122 77.9536C97.2563 78.6986 96.0163 79.7318 94.905 80.9914C90.7431 85.7253 87.1904 90.9572 83.7965 95.4235C83.8951 94.7649 84.1225 93.2418 84.3499 91.7188C84.0839 91.6447 83.8136 91.5706 83.5476 91.4965C81.5782 94.592 79.6087 97.6834 77.3089 101.298C77.8195 99.0336 78.1842 97.4117 78.5447 95.794C78.2786 95.6952 78.0169 95.5964 77.7509 95.5017C75.3781 99.2065 73.0054 102.911 70.6326 106.62C70.4868 106.558 70.3409 106.497 70.1993 106.431C71.1432 103.693 72.0872 100.952 73.0311 98.2144C72.7093 98.0786 72.3918 97.9427 72.07 97.8069C69.2038 102.866 66.3419 107.921 63.5487 112.852C63.8062 111.329 64.0936 109.613 64.3811 107.892C64.1108 107.81 63.8448 107.727 63.5745 107.645C60.7683 112.515 57.9622 117.38 55.1604 122.25C55.0532 122.209 54.9459 122.168 54.8386 122.127C55.9799 118.854 57.1256 115.581 58.2669 112.313C57.9494 112.185 57.6318 112.058 57.3143 111.926C53.7402 118.899 50.166 125.877 46.5833 132.874C46.9738 131.265 47.3642 129.66 47.7547 128.054C47.3814 127.935 47.0124 127.811 46.6391 127.692C42.8419 136.373 39.0446 145.055 34.9513 154.407C36.3715 149.072 37.6158 144.388 38.8644 139.704C38.5597 139.588 38.2508 139.473 37.9462 139.358C34.0674 147.459 30.1929 155.556 26.0524 164.208C27.5027 163.924 28.0948 163.809 28.8757 163.653C28.2321 164.953 27.6743 166.053 27.1422 167.168C26.6059 168.288 26.1039 169.42 25.2114 171.359C48.0765 159.351 69.0322 146.1 92.6009 136.682C89.1255 140.255 86.0662 143.445 82.9555 146.59C78.0727 151.526 73.3572 156.651 66.5265 159.314C64.3554 160.162 63.5616 161.916 64.7501 163.97C66.0416 166.209 67.479 168.399 69.0708 170.449C70.5082 172.297 74.7131 171.865 75.6828 169.922C76.6868 167.913 74.6702 161.142 72.5592 159.767C73.3229 159.392 74.0137 159.042 74.7131 158.713C87.259 152.847 99.9981 147.29 110.373 137.962C111.197 137.221 112.668 136.978 113.883 136.83C120.224 136.073 126.626 135.678 132.925 134.673C141.386 133.327 149.646 131.253 157.262 127.42C158.351 126.873 159.424 126.292 160.484 125.671C163.449 124.238 164.878 121.497 164.517 118.414C159.875 120.126 155.232 121.497 150.594 122.937C149.641 123.226 148.689 123.514 147.741 123.802C145.844 124.374 143.952 124.946 142.06 125.518C141.952 125.313 141.849 125.103 141.742 124.897C143.694 123.946 145.642 122.995 147.608 122.04C148.59 121.563 149.573 121.081 150.555 120.599C155.228 118.072 159.875 115.676 164.517 112.935C160.231 113.618 155.944 114.305 151.658 114.989C158.085 110.535 165.946 111.218 172.729 108.135C169.692 108.135 166.568 108.221 163.444 108.263C162.402 108.275 161.359 108.287 160.321 108.287C159.201 108.213 158.197 108.258 157.197 108.283C156.3 108.135 155.223 108.481 154.125 108.16C154.117 107.822 154.099 107.151 154.086 106.814C155.387 106.781 156.657 106.509 157.901 106.315C159.145 106.122 160.377 105.994 161.599 106.258C162.831 106.176 164.058 106.093 165.281 106.015C171.395 105.616 177.424 105.27 183.448 105.056C178.805 103.685 173.802 103.343 169.16 101.973C172.73 101.973 176.66 101.973 180.388 102.014C181.543 102.117 182.692 102.248 183.834 102.413C195.251 104.047 206.175 108.633 217.387 112.819C217.992 109.407 218.374 106.554 219.03 103.767C219.614 101.294 218.653 100.104 216.447 98.7207C208.78 93.9128 201.288 88.8373 193.891 83.6506C191.578 82.0288 189.789 79.7236 187.76 77.7313C187.884 77.6325 188.009 77.5378 188.129 77.439C193.248 80.4892 198.366 83.5395 202.807 86.1822C198.8 81.9958 194.337 77.4431 189.999 72.7792C177.853 59.7097 168.096 45.4876 164.341 27.8612C162.767 20.464 160.604 13.1739 158.373 5.90434C158.055 4.867 157.734 3.82967 157.407 2.79234C156.498 -0.216743 155.597 -3.34931 154.31 -6.2349C153.881 -7.19814 153.409 -8.13255 152.876 -9.0258C151.658 -10.7629 150.59 -12.4753 148.89 -13.7926C148.011 -14.6694 147.114 -15.5256 146.2 -16.3612C137.074 -24.7257 126.575 -31.2337 114.496 -35.5436C101.212 -40.2857 88.0099 -45.2377 74.7431 -50.0168C72.3317 -50.8854 69.7745 -51.3753 67.2859 -52.038C67.1443 -51.754 67.007 -51.4658 66.8654 -51.1818C67.9037 -50.3626 68.852 -49.3953 69.9933 -48.7449C75.8887 -45.39 81.7069 -41.8787 87.7868 -38.8573C102.899 -31.349 118.783 -25.6478 135.01 -20.7987C136.726 -20.2883 138.348 -19.4855 140.013 -18.8228C138.584 -18.3041 137.439 -18.4071 136.327 -18.6664C117.101 -23.1327 99.2258 -30.8592 81.591 -39.2484C77.9654 -40.9731 73.7691 -41.5906 69.8345 -42.7226C69.5728 -42.1586 69.3111 -41.5947 69.0494 -41.0308C80.4841 -33.0367 93.3561 -27.5084 106.486 -22.4617C118.748 -17.7484 131.5 -14.9822 144.656 -13.5703C145.853 -13.4427 147.05 -13.3233 148.251 -13.2163C146.878 -12.393 145.587 -12.1707 144.295 -12.1831C132.384 -12.3231 121.083 -15.3692 110.008 -19.1851C99.7406 -22.721 89.6232 -26.6563 79.42 -30.3734C78.3387 -30.7686 77.1459 -30.8715 76.0046 -31.1103C75.8201 -30.7562 75.6356 -30.3981 75.4468 -30.0441C79.3298 -27.3108 83.0499 -24.3223 87.126 -21.8895C102.851 -12.5042 120.405 -9.28514 138.584 -8.28486C119.409 -6.75356 101.607 -13.8502 82.5865 -16.7152C85.7401 -11.7097 90.3097 -9.28515 95.2697 -8.24371C105.799 -6.0332 116.466 -4.39487 127.107 -2.68246C130.076 -2.20496 133.139 -2.22965 136.164 -2.14321C139.142 -2.05676 142.128 -2.12263 145.11 -2.12263C145.085 -1.7645 145.063 -1.40636 145.037 -1.04823C126.592 0.762978 108.562 -2.78125 89.679 -5.33341C91.0606 -4.28785 91.8286 -3.46458 92.7854 -3.02412C98.0029 -0.611916 103.083 2.23663 108.545 3.94904C121.743 8.08602 135.366 7.72791 148.998 6.39008C151.298 6.16368 153.619 6.1472 155.931 6.03194C155.94 6.52179 155.949 7.01163 155.957 7.49737C137.516 10.7452 118.954 8.99574 100.376 7.909C116.44 16.7798 133.757 17.5825 151.636 15.1786C144.806 18.7269 137.469 18.7104 130.183 18.8298C122.876 18.9492 115.565 18.8545 108.318 18.8545C109.086 19.332 110.008 19.9742 110.991 20.5175C124.039 27.6759 137.692 28.0711 151.757 23.8477C153.361 23.3661 155.013 23.0368 156.648 22.6375C156.76 23.1026 156.867 23.5637 156.978 24.0288C151.328 27.6553 144.763 28.4292 138.117 28.775C131.354 29.1249 124.579 29.2896 116.886 29.5695C118.581 30.4957 119.413 31.0596 120.327 31.4342C131.505 36.0116 142.815 36.6085 154.297 32.4633C155.756 31.9364 157.322 31.6935 158.841 31.319C158.978 31.8623 159.111 32.4057 159.248 32.949C149.392 37.9381 138.28 38.4815 127.458 40.1568C138.919 45.2282 149.937 43.1247 160.926 38.4773C153.117 46.0021 142.3 45.1994 132.35 48.4267C144.312 52.6871 155.254 50.5837 166.156 46.4714C157.339 52.4772 147.131 54.2966 136.855 56.0008C147.745 60.8458 156.996 56.9147 165.993 51.1846C159.634 59.8579 149.311 60.9446 139.172 64.0525C147.792 65.7896 155.078 64.8099 162.029 61.2492C163.517 60.4877 165.161 59.9978 166.731 59.3804C166.864 59.6438 166.997 59.9114 167.126 60.1749C166.508 60.8005 166.015 61.6814 165.255 62.0149C157.592 65.3903 149.882 68.6793 142.429 71.886C153.417 75.6525 163.56 71.8366 173.369 65.9254C170.734 70.9268 165.847 72.6475 161.11 74.3393C156.468 75.9982 151.628 77.1508 146.393 78.6657C157.806 81.5471 167.04 77.6242 176.475 71.1656C173.656 76.4716 166.491 79.9335 158.883 81.0614C157.613 81.2508 156.335 81.3743 155.06 81.4278C154.211 81.4195 153.327 81.4154 152.426 81.3907C149.517 81.7447 147.015 80.7156 144.226 80.0611C143.15 79.6948 142.133 79.2543 141.193 78.7357C140.253 78.2211 139.391 77.6284 138.623 76.9574C140.313 76.7351 141.592 76.591 142.858 76.3934C144.248 76.1753 145.63 75.9077 147.329 75.6031C143.029 74.1459 139.211 72.8492 135.388 71.5526C135.439 71.145 135.495 70.7375 135.546 70.33C139.55 69.4244 143.557 68.5229 147.56 67.6173C142.051 66.5553 136.58 66.2712 132.049 62.4553C135.718 61.9737 139.391 61.4921 143.059 61.0105C138.764 59.1128 134.079 58.5818 130.162 54.6095C133.637 54.0208 136.396 53.5516 139.159 53.0823C134.259 51.3575 129.286 50.6495 125.352 47.6116C125.408 47.2782 125.459 46.9406 125.515 46.6072C127.87 46.2326 130.226 45.858 133.556 45.327C128.132 43.0877 123.009 42.3097 119.186 37.8352C122.395 37.547 124.665 37.3453 126.939 37.1436C121.035 34.3898 115.136 32.278 110.648 28.0052C110.819 27.6101 110.995 27.219 111.167 26.8279C113.595 26.8279 116.02 26.8279 118.448 26.8279C112.497 23.6789 106.559 20.9333 101.873 16.4052C101.989 16.0842 102.105 15.7631 102.221 15.442C106.293 15.8166 110.364 16.1912 114.436 16.5617C106.687 13.4456 98.8954 10.7329 92.4079 5.71088C92.558 5.33628 92.7039 4.9617 92.8541 4.5871C96.9002 4.96993 100.942 5.35686 104.988 5.73969C97.5524 1.97731 89.9622 -1.34874 84.0925 -8.23547C86.1778 -8.23547 87.4564 -8.23547 89.4001 -8.23547C84.9549 -11.1704 81.3379 -14.019 80.0679 -19.2057C83.303 -18.5429 86.1263 -17.9666 88.9496 -17.3862C85.5556 -20.1895 81.9043 -22.3588 78.6004 -24.9357C75.3395 -27.4796 72.4347 -30.4393 69.3712 -33.2137C69.5814 -33.5924 69.7874 -33.9711 69.9976 -34.3499C72.173 -34.1029 74.3526 -33.8559 77.532 -33.4936C72.8852 -36.585 68.0368 -38.5115 67.3245 -44.2086C69.2296 -44.0769 70.5468 -43.9904 72.469 -43.8587C71.5423 -44.7026 71.0531 -45.1307 70.5812 -45.5835C68.1312 -47.9422 65.1019 -49.988 63.4629 -52.7872C62.4417 -54.5325 61.5021 -55.2858 59.7686 -55.8704C53.0794 -58.122 46.3388 -60.2667 39.774 -62.8229C19.1659 -70.8499 -1.28356 -79.2021 -18.6523 -93.0167C-18.8797 -93.1978 -19.2916 -93.1649 -19.9738 -93.3007C-19.8451 -92.3045 -19.8064 -91.4648 -19.622 -90.6539C-17.9314 -83.1209 -13.0829 -77.7078 -6.79708 -73.3321C11.1122 -60.8677 30.8408 -52.1286 52.2942 -46.9419C53.8603 -46.5632 55.3621 -45.9416 56.8939 -45.4312C56.7179 -45.0278 56.542 -44.6244 56.3661 -44.2251C30.3603 -45.6535 8.7781 -57.1794 -11.4525 -72.4512C-10.9333 -70.1131 -10.294 -67.8861 -8.83516 -66.4083C-5.33396 -62.86 -1.88425 -58.9823 2.36781 -56.4384C16.9304 -47.7281 32.6472 -41.2942 49.029 -36.3834C51.2902 -35.7041 53.6415 -35.3007 55.9499 -34.7656C55.0574 -34.2881 54.2422 -34.2634 53.4742 -34.4239C37.397 -37.7706 21.6502 -41.9734 7.47374 -50.4079C5.44854 -51.614 3.05004 -52.2397 0.823177 -53.1371C0.664421 -52.8448 0.505661 -52.5525 0.346905 -52.2603C6.78722 -45.0237 14.4289 -39.0878 22.7228 -33.897C31.0167 -28.7063 40.0143 -24.9851 50.0888 -22.4947C48.763 -22.2724 47.9606 -22.1365 47.1626 -22.0007C47.1497 -21.7537 47.1368 -21.5108 47.1197 -21.2638C55.8684 -19.7037 64.6214 -18.1436 73.3701 -16.5835C73.3014 -16.2336 73.2328 -15.8837 73.1641 -15.5338C63.0038 -14.8875 53.1867 -17.2874 43.567 -19.8602C33.9129 -22.4411 24.5893 -26.1541 15.5531 -29.2249C22.2294 -23.2315 29.9269 -17.5303 39.1562 -14.4841C48.0894 -11.5368 57.3658 -9.5527 66.4921 -7.14461C66.535 -7.25986 66.5779 -7.37514 66.6251 -7.49039C63.2441 -7.74561 59.8673 -7.9967 56.4862 -8.25192C56.4476 -7.86086 56.409 -7.46981 56.3747 -7.07464C66.2347 -6.062 76.0904 -5.05349 85.9504 -4.04086C85.886 -3.6498 85.8174 -3.25463 85.753 -2.86358C65.3251 -1.13058 46.0384 -6.51482 26.8719 -12.6647C37.6845 -0.550163 52.8177 0.413071 67.4919 2.79646C63.9563 2.79646 60.4251 2.79646 56.8896 2.79646C56.881 3.07226 56.8724 3.34806 56.8638 3.62386C67.8823 4.336 78.9051 5.04813 89.9235 5.76027C89.8849 6.11428 89.8463 6.46417 89.812 6.81818C70.8858 8.63763 52.3328 6.6453 34.106 0.907051C40.6279 7.62912 49.0548 10.2883 57.9579 11.7373C66.741 13.1657 75.5927 14.2153 84.4186 15.4297C84.4358 15.3432 84.4529 15.2609 84.4701 15.1744C82.0416 15.2979 79.613 15.4173 77.1845 15.5408C77.1888 15.6808 77.1931 15.8166 77.1931 15.9566C83.2129 15.9813 89.207 15.9813 95.2011 15.9813ZM306.084 163.015C307.401 160.919 303.831 159.207 302.875 157.643C302.222 157.025 301.557 156.408 300.888 155.79C299.549 154.555 298.198 153.333 296.838 152.123C293.19 148.883 290.938 145.026 290.659 140.189C290.612 139.354 290.393 138.522 290.269 137.798C288.801 137.909 286.896 138.51 286.506 138.012C283.978 134.805 282.554 137.081 280.808 138.716C280.001 139.469 278.993 140.14 277.946 140.514C274.161 141.869 273.938 142.276 276.894 145.063C280.108 148.097 283.571 150.888 287.415 154.206C285.811 153.559 284.824 153.164 283.837 152.769C287.651 156.149 291.946 158.429 296.494 160.141C297.631 160.57 298.786 160.965 299.935 161.323C301.085 161.685 302.21 162.006 303.308 162.303C304.248 162.554 305.17 162.788 306.084 163.015ZM218.872 115.689C219.159 115.754 219.451 115.816 219.738 115.882C219.704 122.892 219.704 122.892 226.959 122.695C227.075 122.69 227.191 122.682 227.307 122.695C229.53 122.892 230.486 122.044 230.285 119.801C229.658 112.861 230.289 106.04 232.34 99.3135C232.589 98.4985 231.628 97.0618 230.825 96.3209C230.049 95.6005 228.706 95.4853 227.685 94.9625C225.518 93.8552 224.076 94.3903 223.514 96.6461C221.927 102.981 220.416 109.341 218.872 115.689ZM274.668 118.615C275.238 121.324 272.256 125.304 277.349 125.605C278.945 125.7 281.773 124.708 281.185 121.896C280.481 118.508 277.581 118.714 274.668 118.615ZM-2.47208 160.685C-2.16315 160.862 -1.8585 161.039 -1.54957 161.212C1.58263 157.009 4.71911 152.81 7.85131 148.607C7.56383 148.41 7.27207 148.212 6.9846 148.019C3.83523 152.242 0.681576 156.461 -2.47208 160.685ZM6.36673 162.714C6.64563 162.879 6.92453 163.039 7.20342 163.204C9.85078 159.182 12.4981 155.161 15.1455 151.139C14.8151 150.945 14.4804 150.752 14.15 150.563C11.5542 154.613 8.9626 158.664 6.36673 162.714ZM26.8633 155.436C27.2281 155.523 27.5928 155.613 27.9618 155.7C29.3219 151.291 30.6778 146.883 32.0379 142.474C31.7247 142.383 31.4115 142.297 31.094 142.206C29.6866 146.615 28.275 151.028 26.8633 155.436ZM-7.08027 153.053C-6.80138 153.267 -6.52677 153.477 -6.24788 153.691C-3.02987 150.357 0.188156 147.022 3.41046 143.688C3.14873 143.458 2.88699 143.231 2.62526 143.001C-0.609921 146.352 -3.8451 149.702 -7.08027 153.053Z" fill="#5AD815"/>
</g>
</svg>
