<svg width="49" height="50" viewBox="0 0 49 50" fill="none" xmlns="http://www.w3.org/2000/svg">
<path d="M24.5001 10.4169C23.8878 10.4169 23.4792 10.0001 23.4792 9.37529V1.04165C23.4792 0.416846 23.8878 0 24.5001 0C25.1124 0 25.5209 0.416846 25.5209 1.04165V9.37482C25.5209 10.0001 25.1128 10.4169 24.5001 10.4169Z" fill="black"/>
<path d="M24.5001 10.4169C23.8878 10.4169 23.4792 10.0001 23.4792 9.37529V1.04165C23.4792 0.416846 23.8878 0 24.5001 0C25.1124 0 25.5209 0.416846 25.5209 1.04165V9.37482C25.5209 10.0001 25.1128 10.4169 24.5001 10.4169Z" fill="#5AD815"/>
<path d="M47.9791 26.0415H39.8126C39.2003 26.0415 38.7917 25.6247 38.7917 24.9999C38.7917 24.3751 39.2003 23.9583 39.8126 23.9583H47.9791C48.5914 23.9583 48.9999 24.3751 48.9999 24.9999C48.9999 25.6252 48.5919 26.0415 47.9791 26.0415Z" fill="#5AD815"/>
<path d="M14.3548 37.2015C14.549 36.538 14.7414 35.8819 14.9333 35.2254C14.8831 35.2016 14.8323 35.1779 14.7821 35.1541C14.5659 36.7282 13.4875 37.554 12.2003 38.2235C12.4868 37.6691 12.7733 37.1143 13.0598 36.5599C12.4366 37.2789 11.8393 38.0058 11.0379 38.5121C10.994 38.4921 10.9506 38.4716 10.9067 38.4515C11.0575 37.933 11.2088 37.415 11.3595 36.8965C11.3513 36.8853 11.3436 36.8741 11.3353 36.863C10.9967 37.4038 10.6581 37.9442 10.2606 38.5793C10.1893 37.5647 10.4872 36.7692 10.9259 36.0092C10.8962 35.9943 10.8665 35.9794 10.8368 35.9644C10.6088 36.2927 10.3808 36.6205 10.1002 37.0243C10.1436 35.9551 10.6997 35.1844 11.0548 34.3213C10.7852 34.6398 10.5151 34.9582 10.2455 35.2762C10.2108 35.2571 10.1761 35.238 10.1418 35.2189C10.463 34.5185 10.7454 33.7963 11.1133 33.1225C11.8334 31.8035 12.7848 30.655 13.9879 29.7845C14.4759 29.4315 15.1449 29.3126 15.7494 29.162C16.1968 29.0506 16.6725 29.0599 17.1381 28.9531C16.481 28.9531 15.8239 28.9531 15.1668 28.9531C15.1536 28.9107 15.1399 28.8683 15.1266 28.8259C17.1038 26.8601 19.5329 25.6198 22.0297 24.4886C22.0164 24.456 22.0032 24.4238 21.9899 24.3912C21.8465 24.4364 21.6966 24.4667 21.5609 24.5287C20.419 25.0477 19.2802 25.5741 18.1388 26.094C17.7202 26.2842 17.3766 26.0917 17.3606 25.7186C16.8278 25.4627 16.3128 25.2253 15.8079 24.9675C15.6192 24.871 15.4616 24.725 15.6992 24.4998C15.6114 24.4639 15.5242 24.4285 15.4373 24.3935C15.3505 24.3585 15.2642 24.324 15.1778 24.2895C14.7017 24.0429 13.9029 23.9268 13.5986 23.3831C13.3322 22.8007 12.4955 22.8786 12.008 22.4431C11.9481 22.3694 11.9061 22.2832 11.8869 22.1796C11.811 21.7525 11.2782 21.7917 10.9995 21.4812C10.9296 21.4336 10.8633 21.3819 10.8012 21.3245C10.739 21.2672 10.6824 21.2033 10.6316 21.1319C10.2515 20.5887 9.79497 20.239 9.29598 19.8833C9.19317 19.8026 9.09081 19.7149 8.99577 19.618C8.88153 19.4627 8.99577 19.3074 9.14793 19.23C9.07208 19.1526 8.99577 19.0748 8.919 18.9792C8.85594 18.9111 8.78694 18.8444 8.71657 18.7782C8.3629 18.4462 7.95622 18.1175 7.8927 17.5999C8.12072 17.5999 8.31126 17.5999 8.53928 17.5999C8.46342 17.4834 8.38712 17.3673 8.27471 17.2945C8.18423 17.1929 8.09467 17.0922 8.00557 16.9919C7.64915 16.5914 7.30187 16.2011 6.95459 15.8109C6.9683 15.7927 6.98155 15.775 6.99526 15.7568C7.71723 16.0421 8.42596 16.3695 9.16301 16.6049C10.9922 17.1892 12.8323 17.7384 14.6729 18.2844C14.9932 18.3795 15.2367 18.4933 15.4396 18.7997C15.849 19.4184 16.518 19.5928 17.2057 19.6926C16.6533 19.4221 16.0528 19.2207 15.7343 18.6239C15.6804 18.5227 15.6749 18.394 15.6384 18.2434C15.8381 18.221 15.9916 18.2042 16.2247 18.1781C15.9715 17.9832 15.7599 17.8405 15.5726 17.6708C15.3697 17.4866 15.1709 17.2917 15.0028 17.0754C14.7624 16.7667 14.8058 16.6744 15.2143 16.5821C14.9315 16.3154 14.6601 16.0622 14.3928 15.8048C14.3119 15.7269 14.2237 15.6467 14.1739 15.5488C14.1158 15.4351 14.0967 15.3003 14.061 15.1749C14.1766 15.1572 14.2918 15.1352 14.4078 15.1231C14.454 15.1185 14.502 15.1357 14.6706 15.1618C14.5065 15.0159 14.4193 14.9455 14.3402 14.8667C13.8618 14.3911 13.3761 13.9225 12.9141 13.4306C12.8076 13.3173 12.7838 13.1228 12.7222 12.9662C12.8775 12.9428 13.0329 12.9195 13.1585 12.9009C12.4718 12.1227 11.7498 11.3044 11.0273 10.4861C11.0479 10.452 11.0685 10.4185 11.089 10.3844C11.3038 10.438 11.5181 10.4921 11.8467 10.5742C11.6305 10.3434 11.4866 10.1993 11.3536 10.0454C11.0228 9.66217 10.7139 9.2733 10.7546 8.70725C10.7623 8.59674 10.649 8.46339 10.5658 8.36174C10.0061 7.67633 9.71043 6.68597 9.83198 5.86487C9.85528 5.863 9.8859 5.85041 9.90098 5.86067C12.581 7.69264 15.5214 9.00846 18.4664 10.3019C20.5113 11.1995 22.6027 11.9879 24.6804 12.8062C25.8406 13.2632 26.8674 13.915 27.7735 14.7375C27.874 14.8289 27.9732 14.9226 28.071 15.0182C28.4713 15.3483 28.7377 15.7754 28.9561 16.2478C29.0077 16.3671 29.0548 16.4893 29.0991 16.6133C29.2316 16.9854 29.3367 17.3738 29.445 17.7506C29.4802 17.876 29.5149 18.0014 29.5497 18.1268C29.8275 19.1312 30.0962 20.1379 30.3488 21.1492C30.7185 22.6287 31.5703 23.7538 32.7076 24.6896C33.2829 25.1628 33.8637 25.6286 34.3997 26.1635C33.9765 25.8944 33.5534 25.6258 33.1303 25.3568C33.1166 25.3703 33.1029 25.3839 33.0896 25.3974C33.1965 25.4967 33.2952 25.6072 33.4108 25.6939C35.1212 26.9762 36.9846 27.891 39.1026 28.236C39.7085 28.3349 40.3002 28.5424 40.8888 28.7312C42.2523 29.169 43.0474 30.1585 43.3969 31.5372C43.4915 31.9093 43.5276 32.3056 43.5304 32.6912C43.534 33.226 43.6642 33.6821 44.0618 34.0518C44.2108 34.1903 44.3597 34.3292 44.5055 34.471C44.5786 34.5419 44.6508 34.6137 44.7221 34.6859C44.9798 34.9489 45.3221 35.3373 45.132 35.6087C44.9039 35.9579 44.4091 35.6861 44.0257 35.5154C43.9247 35.4725 43.8237 35.4292 43.7232 35.3849C43.3206 35.2086 42.9213 35.024 42.5223 34.8403C42.3684 34.7694 42.2358 34.6402 42.107 34.5227C41.5166 33.9833 40.9093 33.4886 40.1522 33.1836C39.7866 33.0363 39.4699 32.7271 39.1729 32.4455C38.6077 31.9098 38.5743 31.3806 39.0153 30.7329C39.0496 30.6825 39.0847 30.6322 39.1323 30.5632C38.8215 30.7194 38.5967 30.966 38.5286 31.3638C38.4706 31.7046 38.3079 31.699 38.0653 31.6207C37.3931 31.4029 36.7274 31.1763 35.9981 31.2607C35.1491 31.3596 34.2959 31.4267 33.4437 31.4948C33.0375 31.527 32.6281 31.5531 32.2214 31.5405C31.4761 31.5172 30.788 31.6678 30.1035 31.9932C28.7052 32.6586 27.216 33.0377 25.6985 33.3128C25.3809 33.3706 25.0542 33.4914 24.7796 33.6629C23.6007 34.3996 22.3454 34.9652 21.0463 35.4306C20.6991 35.5551 20.5761 35.7332 20.6282 36.0978C20.652 36.2652 20.5853 36.4456 20.5437 36.7319C20.6182 36.8047 20.6968 36.8788 20.7777 36.9539C21.7002 37.7815 22.5369 38.791 22.7156 40.0322C22.7128 40.1641 22.6909 40.2928 22.6525 40.415C22.5369 40.7801 22.2705 41.0808 21.8524 41.1974C21.8903 41.0808 21.8903 41.0034 21.9283 40.8869C21.6619 40.8482 21.3575 40.4989 21.2054 40.8482C21.1295 40.6929 21.2433 40.5763 21.2067 40.4047C21.2177 40.3012 21.2291 40.1973 21.2401 40.0937C21.2812 39.6839 21.4334 39.2181 21.2812 38.9075C21.0532 38.4417 20.5967 38.0925 20.4281 37.5922C20.3893 37.5125 20.3504 37.4332 20.3111 37.3535C20.233 37.194 20.1553 37.035 20.0767 36.876C20.0411 36.8942 20.0054 36.9124 19.9698 36.931C20.0497 37.1348 20.1293 37.3385 20.2092 37.5418C20.249 37.6435 20.2892 37.7456 20.3285 37.8472C20.5579 38.2869 20.6342 38.6749 21.0527 38.908C21.2808 39.0633 21.0907 39.5678 21.1249 39.9655C21.1062 40.1143 21.0102 40.2248 20.8946 40.2779C20.5204 40.2276 20.3682 40.4602 20.2161 40.7708C20.0639 40.3437 19.9117 39.917 19.7596 39.4899C19.6837 39.5673 19.5695 39.6839 19.4932 39.7618C19.6074 39.2959 19.9117 38.8688 19.8848 38.3536C19.8916 38.2235 19.8884 38.093 19.8738 37.9629C19.8441 37.7022 19.7687 37.4421 19.6335 37.1823C19.5489 37.0196 19.3657 36.8727 19.1948 36.8028C18.8608 36.6657 18.2736 35.425 18.4459 35.1028C18.5039 34.9941 18.6369 34.9172 18.7497 34.8505C19.1139 34.6346 19.4845 34.43 19.8528 34.2211C19.8204 34.1628 19.7879 34.104 19.7555 34.0457C17.9464 35.1028 16.1365 36.1603 14.3548 37.2015ZM22.4181 18.8808C22.4204 18.9041 22.4231 18.9269 22.4254 18.9503C22.3002 18.9792 22.1764 19.0211 22.0498 19.0347C20.6342 19.1829 19.2314 19.1265 17.8427 18.7759C17.4118 18.6672 16.9667 18.6164 16.5281 18.539C16.8767 19.0006 17.5649 19.3564 18.3887 19.4161C19.734 19.5135 21.0847 19.5298 22.4332 19.5788C22.568 19.5839 22.7032 19.5793 22.8385 19.5793C22.838 19.6217 22.8371 19.6646 22.8367 19.707C21.3287 19.9569 19.7984 19.9005 18.2745 19.9807C19.639 20.4503 21.0281 20.5864 22.4501 20.454C22.1074 20.5244 21.7647 20.5943 21.422 20.6647C21.4242 20.682 21.4265 20.6992 21.4288 20.7165C22.2138 20.6605 22.9993 20.6046 23.7844 20.5491C23.7866 20.5915 23.7894 20.634 23.7917 20.6764C22.5401 20.9799 21.2556 21.0098 19.968 21.0615C20.026 21.1422 20.0826 21.1697 20.1379 21.1678C21.0166 21.1394 21.8949 21.1049 22.7736 21.0788C22.9244 21.0741 23.1104 20.8913 23.2287 21.1543C23.236 21.1711 23.3653 21.1254 23.4389 21.117C23.7204 21.0848 24.0023 21.0564 24.2838 21.0266C24.2911 21.0667 24.2984 21.1063 24.3053 21.1464C24.1618 21.2023 24.0224 21.2863 23.8739 21.3096C23.0793 21.4336 22.281 21.5362 21.4864 21.6612C21.2872 21.6924 21.0966 21.7791 20.9019 21.8402C20.9079 21.8845 20.9143 21.9288 20.9202 21.9731C21.236 22.0113 21.554 22.0948 21.867 22.0789C22.8134 22.0309 23.7583 21.9437 24.7037 21.8738C24.7828 21.8677 24.8623 21.8728 24.9414 21.8728C24.9473 21.9045 24.9528 21.9358 24.9587 21.9675C23.862 22.2118 22.7654 22.4557 21.6687 22.7C21.6737 22.7336 21.6792 22.7671 21.6842 22.8007C22.5881 22.9467 23.4727 22.7965 24.3583 22.5844C23.6094 22.9597 22.8609 23.3355 22.1119 23.7109C22.1138 23.765 22.1156 23.8191 22.1174 23.8731C22.3514 23.9352 22.5931 24.069 22.8184 24.0447C23.2698 23.9967 23.7131 23.8657 24.1581 23.7636C24.563 23.6708 24.966 23.5715 25.37 23.4749C25.3882 23.5346 25.4065 23.5943 25.4248 23.654C24.6005 23.9813 23.7761 24.3086 22.9523 24.636C22.96 24.6756 22.9683 24.7152 22.976 24.7549C23.9818 24.5898 24.9875 24.4247 25.9928 24.2601C26.0065 24.3152 26.0207 24.3697 26.0344 24.4247C25.5665 24.594 25.0981 24.7633 24.6187 24.9362C24.5228 24.9707 24.4264 25.0057 24.3295 25.0407C24.133 25.0509 23.9429 25.2062 23.7528 25.2454C24.2852 25.478 24.818 25.4393 25.3544 25.3927C25.4906 25.3722 25.6263 25.3484 25.7616 25.3237C25.8973 25.299 26.0325 25.2738 26.1682 25.2496C26.1824 25.2962 26.1966 25.3428 26.2107 25.389C26.0814 25.4547 25.9517 25.5205 25.8191 25.5881C25.5783 25.7499 25.3503 25.789 25.1218 25.9051C25.179 25.9923 25.248 26.0725 25.3261 26.1425C25.4042 26.2124 25.4915 26.2716 25.5852 26.3169C25.6697 26.349 25.7529 26.3705 25.8351 26.3849C25.9178 26.3994 25.9996 26.4064 26.0814 26.4087C26.2103 26.4288 26.3506 26.4092 26.4922 26.3901C26.6339 26.3709 26.7764 26.3514 26.9094 26.3709C26.7952 26.5649 26.5292 26.5649 26.415 26.7589C26.7573 26.9142 26.8715 27.3021 27.2137 27.4574C26.643 27.9232 26.2249 27.2634 25.8498 26.9044C25.7611 26.833 25.6738 26.7603 25.5898 26.6871C25.5061 26.6143 25.4257 26.5416 25.3494 26.4717C25.269 26.4027 25.1867 26.3364 25.1022 26.2744C24.5132 25.8399 23.8342 25.6058 23.0071 25.7988C22.929 25.824 22.8536 25.8581 22.7814 25.9005C22.637 25.9849 22.5049 26.1019 22.3866 26.2446C21.9433 26.7808 21.565 27.3734 21.2035 27.8793C21.214 27.8047 21.2383 27.6322 21.2625 27.4597C21.2341 27.4513 21.2054 27.4429 21.177 27.4345C20.9673 27.7851 20.7576 28.1353 20.5126 28.5447C20.567 28.2882 20.6058 28.1045 20.6442 27.9213C20.6159 27.9101 20.588 27.8989 20.5597 27.8882C20.307 28.3078 20.0543 28.7275 19.8016 29.1476C19.7861 29.1406 19.7706 29.1336 19.7555 29.1261C19.856 28.8161 19.9565 28.5055 20.0571 28.1955C20.0228 28.1801 19.989 28.1647 19.9547 28.1493C19.6495 28.7223 19.3447 29.2949 19.0472 29.8535C19.0746 29.681 19.1052 29.4866 19.1359 29.2917C19.1071 29.2823 19.0787 29.273 19.0499 29.2637C18.7511 29.8153 18.4523 30.3664 18.1539 30.918C18.1425 30.9133 18.131 30.9087 18.1196 30.904C18.2412 30.5333 18.3632 30.1627 18.4847 29.7924C18.4509 29.778 18.4171 29.7635 18.3833 29.7486C18.0026 30.5385 17.622 31.3288 17.2404 32.1215C17.282 31.9391 17.3236 31.7573 17.3652 31.5755C17.3254 31.5619 17.2861 31.5479 17.2464 31.5344C16.842 32.5178 16.4376 33.5011 16.0017 34.5605C16.1529 33.9562 16.2854 33.4256 16.4184 32.895C16.386 32.8819 16.3531 32.8689 16.3206 32.8558C15.9075 33.7734 15.4949 34.6906 15.054 35.6707C15.2084 35.6385 15.2715 35.6255 15.3546 35.6078C15.2861 35.7551 15.2267 35.8796 15.17 36.0059C15.1129 36.1328 15.0594 36.261 14.9644 36.4806C17.3995 35.1205 19.6312 33.6196 22.1412 32.5528C21.7711 32.9575 21.4453 33.3188 21.114 33.6751C20.594 34.2341 20.0918 34.8146 19.3643 35.1163C19.1331 35.2124 19.0486 35.411 19.1752 35.6437C19.3127 35.8973 19.4658 36.1454 19.6353 36.3776C19.7884 36.5869 20.2362 36.538 20.3394 36.3179C20.4464 36.0903 20.2316 35.3233 20.0068 35.1676C20.0881 35.1252 20.1617 35.0855 20.2362 35.0482C21.5723 34.3838 22.929 33.7543 24.0339 32.6978C24.1216 32.6138 24.2783 32.5863 24.4076 32.5695C25.083 32.4837 25.7648 32.439 26.4356 32.3252C27.3367 32.1727 28.2163 31.9377 29.0274 31.5036C29.1434 31.4416 29.2577 31.3759 29.3705 31.3055C29.6863 31.1432 29.8384 30.8327 29.8001 30.4834C29.3056 30.6774 28.8112 30.8327 28.3173 30.9959C28.2158 31.0285 28.1144 31.0612 28.0134 31.0938C27.8114 31.1586 27.6099 31.2234 27.4084 31.2882C27.397 31.2649 27.386 31.2411 27.3746 31.2178C27.5825 31.1101 27.79 31.0024 27.9992 30.8942C28.1039 30.8401 28.2085 30.7856 28.3132 30.731C28.8108 30.4447 29.3056 30.1734 29.8001 29.8628C29.3436 29.9402 28.8871 30.0181 28.4306 30.0955C29.1151 29.591 29.9522 29.6684 30.6747 29.3192C30.3511 29.3192 30.0185 29.329 29.6858 29.3336C29.5748 29.335 29.4637 29.3364 29.3532 29.3364C29.2339 29.328 29.127 29.3332 29.0205 29.336C28.925 29.3192 28.8103 29.3583 28.6933 29.322C28.6924 29.2837 28.6906 29.2077 28.6892 29.1695C28.8277 29.1658 28.9629 29.135 29.0954 29.1131C29.228 29.0912 29.3591 29.0767 29.4893 29.1066C29.6205 29.0972 29.7512 29.0879 29.8814 29.079C30.5325 29.0338 31.1746 28.9946 31.8161 28.9704C31.3217 28.8151 30.7889 28.7764 30.2945 28.6212C30.6747 28.6212 31.0932 28.6212 31.4903 28.6258C31.6132 28.6375 31.7357 28.6524 31.8572 28.6711C33.0732 28.8562 34.2365 29.3756 35.4305 29.8498C35.495 29.4633 35.5356 29.1401 35.6056 28.8245C35.6677 28.5442 35.5653 28.4095 35.3305 28.2528C34.5139 27.7082 33.7161 27.1333 32.9283 26.5458C32.682 26.3621 32.4915 26.101 32.2753 25.8753C32.2886 25.8641 32.3018 25.8534 32.3146 25.8422C32.8598 26.1877 33.4049 26.5332 33.8778 26.8326C33.4511 26.3584 32.9758 25.8427 32.5139 25.3144C31.2202 23.834 30.1811 22.223 29.7813 20.2264C29.6136 19.3886 29.3833 18.5628 29.1457 17.7394C29.1119 17.6219 29.0776 17.5044 29.0429 17.3869C28.946 17.046 28.8501 16.6912 28.713 16.3643C28.6673 16.2552 28.617 16.1494 28.5604 16.0482C28.4306 15.8514 28.3168 15.6575 28.1359 15.5083C28.0422 15.4089 27.9467 15.312 27.8494 15.2173C26.8774 14.2698 25.7593 13.5327 24.473 13.0445C23.0583 12.5073 21.6523 11.9464 20.2394 11.4051C19.9826 11.3067 19.7102 11.2512 19.4452 11.1761C19.4301 11.2083 19.4155 11.241 19.4004 11.2731C19.511 11.3659 19.612 11.4755 19.7335 11.5492C20.3614 11.9292 20.981 12.3269 21.6285 12.6691C23.2379 13.5196 24.9295 14.1654 26.6576 14.7147C26.8404 14.7725 27.0131 14.8634 27.1904 14.9385C27.0383 14.9972 26.9163 14.9856 26.7979 14.9562C24.7503 14.4503 22.8467 13.5751 20.9687 12.6248C20.5825 12.4295 20.1357 12.3595 19.7166 12.2313C19.6888 12.2952 19.6609 12.3591 19.633 12.423C20.8508 13.3284 22.2216 13.9546 23.6199 14.5263C24.9258 15.0602 26.2839 15.3735 27.6849 15.5334C27.8123 15.5479 27.9398 15.5614 28.0678 15.5735C27.9216 15.6668 27.784 15.692 27.6465 15.6906C26.378 15.6747 25.1744 15.3297 23.995 14.8974C22.9015 14.4969 21.8241 14.0512 20.7374 13.6301C20.6223 13.5854 20.4953 13.5737 20.3737 13.5467C20.3541 13.5868 20.3344 13.6273 20.3143 13.6674C20.7279 13.977 21.124 14.3155 21.5581 14.5911C23.2328 15.6542 25.1022 16.0188 27.0383 16.1321C24.9962 16.3056 23.1003 15.5017 21.0747 15.1772C21.4105 15.7442 21.8972 16.0188 22.4254 16.1368C23.5468 16.3872 24.6827 16.5728 25.8159 16.7667C26.1322 16.8208 26.4584 16.818 26.7806 16.8278C27.0977 16.8376 27.4157 16.8301 27.7333 16.8301C27.7305 16.8707 27.7283 16.9113 27.7255 16.9518C25.7611 17.157 23.841 16.7555 21.83 16.4664C21.9771 16.5849 22.0589 16.6781 22.1608 16.728C22.7165 17.0013 23.2575 17.3239 23.8392 17.5179C25.2448 17.9865 26.6956 17.9459 28.1473 17.7944C28.3922 17.7687 28.6394 17.7669 28.8857 17.7538C28.8866 17.8093 28.8875 17.8648 28.8885 17.9198C26.9245 18.2877 24.9477 18.0895 22.9692 17.9664C24.68 18.9712 26.5242 19.0622 28.4283 18.7899C27.7008 19.1918 26.9195 19.1899 26.1436 19.2034C25.3654 19.217 24.5868 19.2062 23.815 19.2062C23.8968 19.2603 23.995 19.3331 24.0997 19.3946C25.4892 20.2055 26.9432 20.2502 28.4411 19.7718C28.612 19.7173 28.7879 19.68 28.962 19.6347C28.9739 19.6874 28.9853 19.7397 28.9972 19.7923C28.3954 20.2031 27.6963 20.2908 26.9885 20.33C26.2683 20.3696 25.5468 20.3882 24.7275 20.4199C24.908 20.5249 24.9966 20.5887 25.094 20.6312C26.2843 21.1497 27.4888 21.2173 28.7116 20.7477C28.867 20.6881 29.0338 20.6605 29.1955 20.6181C29.2101 20.6797 29.2243 20.7412 29.2389 20.8028C28.1893 21.3679 27.0058 21.4294 25.8534 21.6192C27.0739 22.1936 28.2474 21.9554 29.4176 21.429C28.586 22.2813 27.434 22.1904 26.3743 22.5559C27.6483 23.0385 28.8135 22.8003 29.9746 22.3345C29.0356 23.0147 27.9485 23.2208 26.8541 23.4139C28.0139 23.9627 28.999 23.5174 29.9572 22.8683C29.2801 23.8508 28.1806 23.9739 27.1009 24.3259C28.0189 24.5227 28.7948 24.4117 29.535 24.0084C29.6936 23.9221 29.8686 23.8666 30.0358 23.7967C30.05 23.8265 30.0642 23.8568 30.0779 23.8867C30.0121 23.9575 29.9595 24.0573 29.8787 24.0951C29.0625 24.4774 28.2414 24.85 27.4477 25.2132C28.6179 25.6398 29.6982 25.2076 30.7427 24.538C30.4622 25.1046 29.9417 25.2995 29.4372 25.4911C28.9428 25.679 28.4274 25.8096 27.8699 25.9811C29.0854 26.3075 30.0687 25.8632 31.0736 25.1316C30.7734 25.7326 30.0103 26.1248 29.2001 26.2525C29.0648 26.274 28.9287 26.288 28.7929 26.294C28.7025 26.2931 28.6083 26.2926 28.5124 26.2898C28.2026 26.3299 27.9362 26.2133 27.6392 26.1392C27.5245 26.0977 27.4162 26.0478 27.3161 25.9891C27.216 25.9308 27.1242 25.8636 27.0424 25.7876C27.2224 25.7625 27.3586 25.7461 27.4934 25.7238C27.6414 25.6991 27.7886 25.6687 27.9695 25.6342C27.5117 25.4692 27.105 25.3223 26.6979 25.1754C26.7033 25.1293 26.7093 25.0831 26.7148 25.0369C27.1411 24.9344 27.5679 24.8323 27.9942 24.7297C27.4075 24.6094 26.8249 24.5772 26.3423 24.145C26.733 24.0904 27.1242 24.0359 27.5149 23.9813C27.0575 23.7664 26.5585 23.7062 26.1413 23.2563C26.5114 23.1896 26.8052 23.1364 27.0995 23.0833C26.5777 22.8879 26.0481 22.8077 25.6291 22.4636C25.635 22.4258 25.6405 22.3876 25.6464 22.3498C25.8973 22.3074 26.1481 22.265 26.5027 22.2048C25.9252 21.9512 25.3796 21.8631 24.9724 21.3562C25.3142 21.3236 25.5559 21.3007 25.7981 21.2779C25.1694 20.9659 24.5411 20.7268 24.0631 20.2428C24.0814 20.198 24.1001 20.1537 24.1184 20.1094C24.377 20.1094 24.6352 20.1094 24.8938 20.1094C24.26 19.7527 23.6276 19.4417 23.1286 18.9288C23.141 18.8924 23.1533 18.8561 23.1657 18.8197C23.5993 18.8621 24.0329 18.9046 24.4666 18.9465C23.6413 18.5936 22.8115 18.2863 22.1206 17.7174C22.1366 17.675 22.1522 17.6326 22.1681 17.5902C22.599 17.6335 23.0295 17.6773 23.4604 17.7207C22.6685 17.2945 21.8602 16.9178 21.2351 16.1377C21.4571 16.1377 21.5933 16.1377 21.8003 16.1377C21.3269 15.8053 20.9417 15.4826 20.8064 14.8951C21.151 14.9702 21.4517 15.0355 21.7523 15.1012C21.3909 14.7837 21.002 14.538 20.6502 14.2461C20.3029 13.9579 19.9935 13.6227 19.6673 13.3084C19.6897 13.2655 19.7116 13.2226 19.734 13.1797C19.9657 13.2077 20.1978 13.2357 20.5364 13.2767C20.0415 12.9265 19.5252 12.7083 19.4493 12.063C19.6522 12.0779 19.7925 12.0877 19.9972 12.1026C19.8985 12.007 19.8464 11.9585 19.7961 11.9073C19.5352 11.6401 19.2126 11.4083 19.0381 11.0913C18.9293 10.8936 18.8292 10.8083 18.6446 10.742C17.9323 10.487 17.2144 10.2441 16.5153 9.95452C14.3206 9.04529 12.1428 8.09923 10.293 6.53443C10.2688 6.51391 10.225 6.51764 10.1523 6.50226C10.166 6.6151 10.1701 6.71021 10.1898 6.80207C10.3698 7.65534 10.8862 8.26849 11.5556 8.76413C13.4629 10.176 15.5639 11.1659 17.8486 11.7534C18.0154 11.7963 18.1754 11.8667 18.3385 11.9245C18.3197 11.9702 18.301 12.0159 18.2823 12.0611C15.5127 11.8993 13.2143 10.5938 11.0598 8.86391C11.1151 9.12876 11.1832 9.38101 11.3385 9.5484C11.7114 9.95032 12.0788 10.3895 12.5316 10.6777C14.0825 11.6643 15.7563 12.3931 17.5009 12.9494C17.7417 13.0263 17.9921 13.072 18.238 13.1326C18.1429 13.1867 18.0561 13.1895 17.9743 13.1713C16.2621 12.7922 14.5851 12.3162 13.0754 11.3608C12.8597 11.2242 12.6043 11.1533 12.3671 11.0517C12.3502 11.0848 12.3333 11.1179 12.3164 11.151C13.0023 11.9707 13.8161 12.643 14.6994 13.231C15.5826 13.819 16.5409 14.2405 17.6138 14.5226C17.4726 14.5477 17.3871 14.5631 17.3021 14.5785C17.3008 14.6065 17.2994 14.634 17.2976 14.662C18.2293 14.8387 19.1614 15.0154 20.0932 15.1921C20.0858 15.2318 20.0785 15.2714 20.0712 15.311C18.9892 15.3842 17.9437 15.1124 16.9192 14.821C15.8911 14.5286 14.8981 14.1081 13.9358 13.7602C14.6468 14.4391 15.4666 15.0849 16.4495 15.4299C17.4008 15.7638 18.3887 15.9885 19.3607 16.2613C19.3652 16.2482 19.3698 16.2352 19.3748 16.2221C19.0148 16.1932 18.6551 16.1648 18.2951 16.1359C18.291 16.1802 18.2868 16.2245 18.2832 16.2692C19.3333 16.3839 20.3829 16.4982 21.4329 16.6129C21.4261 16.6571 21.4188 16.7019 21.4119 16.7462C19.2364 16.9425 17.1824 16.3326 15.1412 15.636C16.2927 17.0082 17.9044 17.1174 19.4671 17.3873C19.0906 17.3873 18.7145 17.3873 18.338 17.3873C18.3371 17.4186 18.3362 17.4498 18.3353 17.481C19.5087 17.5617 20.6826 17.6424 21.8561 17.723C21.8519 17.7631 21.8478 17.8028 21.8442 17.8429C19.8286 18.049 17.8527 17.8233 15.9116 17.1733C16.6062 17.9347 17.5036 18.2359 18.4518 18.4001C19.3872 18.5619 20.3299 18.6808 21.2698 18.8183C21.2716 18.8085 21.2734 18.7992 21.2753 18.7894C21.0166 18.8034 20.758 18.8169 20.4994 18.8309C20.4998 18.8468 20.5003 18.8621 20.5003 18.878C21.1414 18.8808 21.7797 18.8808 22.4181 18.8808ZM44.8765 35.5355C45.0168 35.2982 44.6366 35.1042 44.5347 34.927C44.4653 34.8571 44.3945 34.7871 44.3232 34.7172C44.1806 34.5773 44.0367 34.4388 43.8918 34.3017C43.5034 33.9348 43.2635 33.4979 43.2338 32.95C43.2288 32.8554 43.2055 32.7612 43.1922 32.6791C43.036 32.6917 42.8331 32.7598 42.7915 32.7034C42.5223 32.3401 42.3706 32.598 42.1847 32.7831C42.0988 32.8684 41.9914 32.9444 41.8799 32.9869C41.4768 33.1403 41.4531 33.1864 41.7679 33.5021C42.1102 33.8457 42.4789 34.1618 42.8884 34.5377C42.7175 34.4645 42.6124 34.4197 42.5073 34.3749C42.9135 34.7577 43.3709 35.0161 43.8553 35.21C43.9763 35.2585 44.0993 35.3033 44.2217 35.3438C44.3442 35.3849 44.4639 35.4212 44.5809 35.4548C44.681 35.4833 44.7792 35.5098 44.8765 35.5355ZM35.5886 30.1748C35.6193 30.1822 35.6503 30.1892 35.681 30.1967C35.6773 30.9908 35.6773 30.9907 36.45 30.9684C36.4623 30.9679 36.4747 30.967 36.487 30.9684C36.7237 30.9907 36.8256 30.8947 36.8041 30.6406C36.7374 29.8544 36.8046 29.0818 37.023 28.32C37.0495 28.2276 36.9471 28.0649 36.8617 27.981C36.779 27.8994 36.636 27.8863 36.5272 27.8271C36.2965 27.7017 36.1429 27.7623 36.0831 28.0178C35.914 28.7354 35.7531 29.4558 35.5886 30.1748ZM41.5308 30.5063C41.5915 30.8131 41.274 31.264 41.8164 31.298C41.9864 31.3087 42.2875 31.1964 42.2249 30.8779C42.1499 30.4942 41.841 30.5175 41.5308 30.5063ZM12.0162 35.2716C12.0491 35.2916 12.0815 35.3117 12.1144 35.3313C12.448 34.8552 12.782 34.3796 13.1156 33.9035C13.085 33.8812 13.0539 33.8588 13.0233 33.8369C12.6879 34.3153 12.352 34.7932 12.0162 35.2716ZM12.9575 35.5014C12.9872 35.5201 13.0169 35.5383 13.0466 35.5569C13.3285 35.1014 13.6105 34.6458 13.8924 34.1903C13.8572 34.1684 13.8216 34.1465 13.7864 34.125C13.5099 34.5838 13.2339 35.0426 12.9575 35.5014ZM15.1403 34.6771C15.1792 34.6869 15.218 34.6971 15.2573 34.7069C15.4021 34.2075 15.5465 33.7082 15.6914 33.2088C15.658 33.1985 15.6247 33.1887 15.5909 33.1785C15.441 33.6779 15.2907 34.1777 15.1403 34.6771ZM11.5254 34.4071C11.5551 34.4314 11.5844 34.4551 11.6141 34.4794C11.9568 34.1017 12.2995 33.724 12.6427 33.3463C12.6148 33.3202 12.5869 33.2946 12.559 33.2685C12.2145 33.648 11.87 34.0276 11.5254 34.4071Z" fill="#5AD815"/>
<path d="M24.4997 4.16699C20.5933 4.16699 16.9341 5.30189 13.8223 7.26442C14.4976 7.61879 15.2827 7.9573 16.1874 8.24965C18.6787 6.96974 21.5008 6.25075 24.4993 6.25075C34.7074 6.25075 42.8744 14.5839 42.8744 25.0009C42.8744 26.2188 42.7629 27.4087 42.5491 28.5594C43.0695 28.8103 43.712 29.2901 44.2668 30.2054C44.6903 28.5403 44.9161 26.7965 44.9161 25.0009C44.9165 13.5418 35.7292 4.16699 24.4997 4.16699Z" fill="#5AD815"/>
<path d="M8.745 15.296C9.48296 14.0441 10.3598 12.8887 11.3555 11.8526C11.144 11.4884 10.762 10.8105 10.3658 10.0024C9.11832 11.2273 8.02211 12.6117 7.10913 14.1224C7.57567 14.5253 8.12995 14.943 8.745 15.296Z" fill="#5AD815"/>
<path d="M24.5001 50C23.8878 50 23.4792 49.5831 23.4792 48.9583V40.6251C23.4792 40.0003 23.8878 39.5835 24.5001 39.5835C25.1124 39.5835 25.5209 40.0003 25.5209 40.6251V48.9583C25.5209 49.5836 25.1128 50 24.5001 50Z" fill="#5AD815"/>
<path d="M9.18781 26.0415H1.02082C0.408509 26.0415 0 25.6247 0 24.9999C0 24.3751 0.408509 23.9583 1.02082 23.9583H9.18735C9.79966 23.9583 10.2082 24.3751 10.2082 24.9999C10.2086 25.6252 9.80012 26.0415 9.18781 26.0415Z" fill="#5AD815"/>
<path d="M40.0417 35.0588C36.796 40.2974 31.0714 43.7506 24.5005 43.7506C19.8369 43.7506 15.5996 42.0109 12.3722 39.1289C11.6927 39.5583 11.0293 39.8992 10.5125 40.1416C14.1735 43.6662 19.1007 45.8343 24.5005 45.8343C31.7888 45.8343 38.2171 41.885 41.8315 35.9797C41.376 35.6673 40.7385 35.291 40.0417 35.0588Z" fill="#5AD815"/>
<path d="M7.33375 18.254C7.03491 17.8544 6.60675 17.1046 6.21149 15.7673C4.85025 18.5538 4.0835 21.6899 4.0835 25.0004C4.0835 30.1471 5.93733 34.8732 8.99704 38.5185C9.00206 37.4787 9.21591 36.3564 9.36716 35.6896C7.32004 32.6645 6.12513 28.9847 6.12513 25.0004C6.12513 22.6173 6.55237 20.3438 7.33375 18.254Z" fill="#5AD815"/>
</svg>
